<svg version="1.1" id="Layer_1" xmlns="http://www.w3.org/2000/svg" xmlns:xlink="http://www.w3.org/1999/xlink" x="0px" y="0px"
	 width="100%" viewBox="0 0 2000 2000" enable-background="new 0 0 2000 2000" xml:space="preserve">
<path fill="none" opacity="1.000000" stroke="#000000" stroke-linecap="round" stroke-linejoin="round" stroke-width="7.000000"
	d="
M1054.500000,135.000000 
	C1048.241821,136.849762 1043.376099,141.186905 1038.074341,144.615051 
	C1026.630249,152.015015 1014.998291,159.072571 1002.980286,165.462906 
	C979.547607,177.922791 955.900574,189.981598 932.523010,202.542770 
	C896.148376,222.087433 861.414124,244.239807 829.578430,270.594757 
	C807.090576,289.211304 785.709473,309.007935 770.444336,334.466644 
	C760.687866,350.738312 752.691467,367.803986 746.034180,385.512848 
	C739.401611,403.155823 733.505066,421.062561 729.592773,439.519653 
	C727.805908,447.949677 726.229126,456.442108 724.815063,464.969330 
	C721.154480,487.043915 720.014893,509.228546 720.585266,531.497803 
	C721.210571,555.914856 724.811340,579.959717 731.496094,603.501099 
	C739.664368,632.266663 752.052612,659.119019 766.836731,685.092896 
	C779.244141,706.891052 791.864014,728.462646 806.925659,748.555725 
	C808.556946,750.732056 810.263916,753.334167 809.500000,756.500000 
"/>
<path fill="none" opacity="1.000000" stroke="#000000" stroke-linecap="round" stroke-linejoin="round" stroke-width="8.000000"
	d="
M179.500000,280.500000 
	C182.003479,280.571136 184.121948,280.765228 186.621765,282.301910 
	C194.326050,287.037811 201.394562,292.669281 209.027420,297.456268 
	C220.637848,304.737823 233.825836,307.675598 247.003113,310.485443 
	C271.740204,315.760193 296.883148,317.978241 321.987915,320.615112 
	C336.861542,322.177368 351.707672,324.113800 366.523895,326.341064 
	C392.043182,330.177246 417.324615,334.909576 441.989441,342.534149 
	C472.092377,351.839752 500.470245,364.710510 526.024048,383.467194 
	C554.484924,404.357697 578.054749,429.925964 598.472412,458.519714 
	C616.684753,484.025024 632.019043,511.220978 645.528625,539.486328 
	C659.977173,569.716064 672.816406,600.613464 684.488281,632.004333 
	C693.938660,657.420837 702.591064,683.139343 713.450623,708.021545 
	C714.242676,709.836426 714.432312,711.950073 714.000000,714.000000 
"/>
<path fill="none" opacity="1.000000" stroke="#000000" stroke-linecap="round" stroke-linejoin="round" stroke-width="8.000000"
	d="
M215.000000,353.500000 
	C213.912659,355.196228 213.935425,357.106110 214.008621,358.999664 
	C214.491898,371.500305 214.204712,384.095642 215.693726,396.476715 
	C217.726852,413.381744 221.161591,430.101471 225.961761,446.511200 
	C232.484253,468.808777 240.656235,490.402740 251.452957,511.024628 
	C265.009094,536.917053 281.504791,560.679626 301.502167,581.997986 
	C336.451965,619.256470 379.639801,643.733398 426.501038,662.497375 
	C448.747955,671.405518 471.744476,678.032349 495.042480,683.312622 
	C513.832764,687.571106 533.032349,689.993713 551.992737,693.539001 
	C583.374939,699.407043 614.089111,707.598938 642.949951,721.603149 
	C647.272949,723.700806 652.093079,725.233765 655.500000,729.000000 
"/>
<path fill="none" opacity="1.000000" stroke="#000000" stroke-linecap="round" stroke-linejoin="round" stroke-width="8.000000"
	d="
M1823.500000,1175.500000 
	C1820.165405,1174.765259 1818.516846,1172.104614 1817.032837,1169.481445 
	C1810.266602,1157.519897 1799.154175,1152.022461 1786.481812,1149.078369 
	C1781.021851,1147.809937 1775.665161,1147.342285 1769.863037,1149.656738 
	C1766.446045,1151.019775 1761.691284,1149.682007 1757.494385,1149.884521 
	C1750.563599,1150.219238 1743.983887,1151.674194 1737.492554,1153.979004 
	C1723.894043,1158.806885 1709.915405,1161.664062 1695.516602,1163.159912 
	C1682.794922,1164.481567 1672.922485,1171.522827 1664.968628,1181.474854 
	C1653.866089,1195.366699 1641.776733,1208.007935 1624.015869,1213.550659 
	C1611.068604,1217.591064 1598.139038,1219.393311 1584.472900,1217.721558 
	C1574.846191,1216.544067 1565.230225,1214.727295 1555.499023,1214.557251 
	C1546.976196,1214.408325 1539.730103,1217.402466 1534.489990,1224.492554 
	C1529.536865,1231.193848 1525.003662,1238.293213 1519.410400,1244.418213 
	C1498.321777,1267.512329 1468.317993,1270.447510 1442.526489,1254.955933 
	C1427.348267,1245.839233 1416.932373,1232.059570 1407.523315,1217.484985 
	C1396.561035,1200.504395 1387.401489,1182.433105 1375.594482,1165.932373 
	C1362.158081,1147.154907 1347.213745,1130.148438 1325.969604,1120.064087 
	C1304.351807,1109.802368 1282.932739,1110.840698 1261.959717,1122.427124 
	C1260.035400,1123.490356 1258.375122,1124.463623 1257.500000,1126.500000 
"/>
<path fill="none" opacity="1.000000" stroke="#000000" stroke-linecap="round" stroke-linejoin="round" stroke-width="8.000000"
	d="
M727.500000,1050.000000 
	C721.403442,1053.906494 714.171753,1053.783325 707.469055,1055.369385 
	C686.483093,1060.335083 665.890930,1066.533325 645.490417,1073.471802 
	C625.347778,1080.322754 605.484192,1087.976807 586.571960,1097.640869 
	C557.966797,1112.258057 531.259155,1129.913940 506.460022,1150.451782 
	C484.758270,1168.424316 464.357483,1187.749146 446.613312,1209.592041 
	C422.671783,1239.063965 406.612793,1272.886108 395.692841,1309.058228 
	C392.179413,1320.696411 389.606689,1332.698730 388.314392,1344.980469 
	C386.837280,1359.018555 386.673828,1372.981323 387.525116,1386.998535 
	C388.760376,1407.337769 389.993042,1427.680054 391.562531,1447.995117 
	C392.568848,1461.020874 392.002869,1474.030029 391.290588,1486.988525 
	C390.879028,1494.476562 390.482697,1502.113770 388.586395,1509.522095 
	C388.025818,1511.712036 387.949951,1514.339722 388.618011,1516.462891 
	C389.889740,1520.504517 388.849457,1524.217896 387.978882,1527.995117 
	C385.053436,1540.688354 383.807251,1553.636108 381.980255,1566.497192 
	C381.267548,1571.514282 380.182800,1576.481323 379.560059,1581.507446 
	C379.220978,1584.244263 379.149933,1587.172241 382.522766,1589.326904 
	C387.612885,1584.410522 391.132660,1578.107178 395.494080,1572.495361 
	C407.789520,1556.674683 419.855072,1540.774902 436.912323,1529.368896 
	C449.064209,1521.243042 462.239899,1517.851196 476.496826,1516.949951 
	C490.193604,1516.083984 503.888794,1516.336914 517.483887,1517.665039 
	C527.832764,1518.676147 538.187744,1520.080688 548.523376,1521.302246 
	C568.077271,1523.613525 587.786987,1526.016357 607.486145,1524.337158 
	C628.623047,1522.535400 648.321167,1516.045044 664.466125,1501.462524 
	C672.963074,1493.787842 678.711121,1484.017090 683.984558,1473.991821 
	C687.709106,1466.911011 688.007874,1466.734985 694.998840,1470.002441 
	C709.169434,1476.625366 723.324341,1474.710815 737.502441,1470.007324 
	C752.868042,1464.909912 766.195251,1456.439087 777.949951,1445.446533 
	C779.923035,1443.601562 781.983398,1442.264771 784.500000,1441.500000 
"/>
<path fill="none" opacity="1.000000" stroke="#000000" stroke-linecap="round" stroke-linejoin="round" stroke-width="8.000000"
	d="
M177.750000,277.500000 
	C180.157272,295.396973 192.074570,308.761169 200.130661,323.930603 
	C204.714691,332.562225 208.663925,341.507568 213.492020,350.004547 
	C214.043350,350.974854 213.714600,352.726196 215.009964,352.939453 
	C222.011673,354.092133 223.817261,360.574890 227.440063,365.048553 
	C241.877533,382.876740 256.753174,400.291901 272.397949,417.095001 
	C284.780212,430.394043 297.658905,443.176239 310.542053,455.957611 
	C332.049591,477.295197 355.128540,496.856140 378.987854,515.515503 
	C404.516510,535.480469 431.156799,553.880310 458.002289,571.996582 
	C489.708221,593.392944 523.137329,611.888916 556.494141,630.510498 
	C591.635681,650.128418 626.551331,670.114075 657.986816,695.516296 
	C663.413147,699.901184 668.710876,704.449158 673.975891,709.027710 
	C675.808777,710.621582 677.802673,712.242676 678.000000,715.000000 
"/>
<path fill="none" opacity="1.000000" stroke="#000000" stroke-linecap="round" stroke-linejoin="round" stroke-width="7.000000"
	d="
M1150.500000,1128.000000 
	C1145.164307,1130.306763 1139.484985,1128.866089 1133.986572,1129.346436 
	C1118.475952,1130.701782 1103.214722,1132.967651 1087.960083,1136.318237 
	C1046.325562,1145.462891 1009.017395,1164.036987 974.080627,1187.619507 
	C942.812683,1208.725586 916.146729,1234.851929 893.989990,1265.492798 
	C865.358765,1305.087158 844.847656,1348.513794 831.329163,1395.450806 
	C827.280579,1409.507568 824.369568,1423.742798 821.647522,1438.028076 
	C819.865662,1447.379150 819.500061,1457.000000 818.500061,1466.500000 
"/>
<path fill="none" opacity="1.000000" stroke="#000000" stroke-linecap="round" stroke-linejoin="round" stroke-width="8.000000"
	d="
M1026.000000,1752.500000 
	C1037.456055,1746.074219 1044.613892,1735.391846 1052.458618,1725.467285 
	C1068.630005,1705.008667 1081.113037,1682.020386 1096.391846,1660.921631 
	C1105.189697,1648.772583 1114.636963,1637.173584 1124.051392,1625.541504 
	C1138.310791,1607.922974 1148.379883,1588.255859 1152.314941,1565.967285 
	C1154.809937,1551.836060 1155.695435,1537.432739 1153.634399,1522.980835 
	C1152.923340,1517.994507 1152.200806,1512.983154 1151.656006,1507.983032 
	C1151.200562,1503.803467 1148.165161,1500.916138 1147.473633,1497.004639 
	C1147.320801,1496.139404 1146.505005,1495.315674 1146.548950,1494.502686 
	C1147.277710,1481.019653 1140.042236,1470.082520 1134.928955,1458.531494 
	C1129.777466,1446.894043 1123.022339,1436.098877 1115.934326,1425.544067 
	C1115.159668,1424.390381 1114.043701,1423.307617 1114.062378,1422.000854 
	C1114.151367,1415.783203 1109.765869,1412.340942 1105.994141,1408.505737 
	C1102.688843,1405.144897 1099.367920,1401.797729 1095.987549,1398.512817 
	C1093.806274,1396.393188 1092.312988,1394.014038 1091.420288,1391.023804 
	C1090.098877,1386.597412 1085.993042,1384.109741 1081.529297,1385.588257 
	C1060.646362,1392.504517 1042.516724,1402.505249 1038.516968,1427.002808 
	C1037.077515,1435.818848 1035.842651,1444.668091 1034.498291,1453.499756 
	C1031.372559,1474.035767 1025.673584,1493.452148 1008.944580,1507.433716 
	C1000.925903,1514.135620 990.771362,1516.504395 981.008362,1519.527100 
	C976.127014,1521.038452 971.210876,1522.549072 966.528320,1524.565796 
	C959.275452,1527.689697 953.148926,1532.584961 948.052063,1538.544556 
	C941.556580,1546.139648 933.484192,1547.620850 924.525146,1544.916626 
	C915.362671,1542.151123 907.102051,1543.468262 898.421265,1547.322632 
	C887.660645,1552.100342 885.095459,1550.744019 874.017700,1541.977661 
	C870.405640,1539.119263 867.154236,1535.793823 863.471130,1533.038574 
	C852.465088,1524.805298 839.970703,1522.228394 826.503540,1524.026367 
	C819.876282,1524.911011 813.409729,1526.537231 806.979675,1528.431030 
	C799.787842,1530.549194 793.302490,1526.591431 790.486694,1519.004883 
	C788.985168,1514.959106 788.153076,1510.780151 788.027710,1506.499146 
	C787.769043,1497.668457 787.714661,1488.832153 787.487854,1480.000366 
	C787.205322,1468.999023 787.124756,1457.981445 786.424194,1447.004883 
	C785.602478,1434.131348 785.653870,1421.143799 782.499084,1408.500244 
	C780.003723,1398.499023 777.664795,1388.455200 774.963318,1378.510010 
	C770.333252,1361.465088 767.363953,1344.189209 768.616821,1326.508301 
	C769.291626,1316.985107 771.763916,1307.643433 774.579285,1298.524414 
	C778.866455,1284.638184 783.489807,1270.816040 785.859680,1256.476807 
	C787.628418,1245.774780 786.925659,1234.796875 786.368835,1224.006714 
	C784.868591,1194.935059 791.512329,1169.317993 813.874939,1148.863281 
	C824.070312,1139.537720 835.612183,1132.427368 848.148743,1127.913086 
	C858.491333,1124.188843 868.505615,1119.937866 878.500000,1115.500000 
"/>
<path fill="none" opacity="1.000000" stroke="#000000" stroke-linecap="round" stroke-linejoin="round" stroke-width="8.000000"
	d="
M643.500000,871.500000 
	C640.119019,874.954651 636.523193,878.161682 633.442505,881.953247 
	C624.159058,893.379150 623.085083,906.247498 625.986328,920.002869 
	C628.186951,930.436218 631.659851,940.649536 631.507935,951.500122 
	C631.462463,954.745911 631.181641,957.940979 629.984741,961.694763 
	C619.033997,948.229736 605.204224,938.486816 593.520142,926.480408 
	C590.606445,923.486267 586.223511,923.272156 583.325439,919.639282 
	C575.700439,910.080750 571.319946,899.474426 569.455078,887.507019 
	C565.286316,860.755920 575.012512,839.130188 592.900940,819.907837 
	C604.983398,806.924377 619.500488,796.548889 631.035645,783.030396 
	C638.167786,774.671997 642.359009,765.332947 645.410522,754.616882 
	C649.304443,740.942505 655.533447,727.686829 669.477112,720.455811 
	C672.253113,719.016296 675.016541,717.465454 677.682068,715.789551 
	C680.002441,714.330566 683.829651,715.150757 687.021973,714.636414 
	C693.950684,713.520081 701.002625,714.365173 707.999207,714.331238 
	C713.710266,714.303589 718.116699,717.136230 722.990540,719.024353 
	C727.866882,720.913391 732.843933,722.659363 737.466309,725.064697 
	C750.562561,731.879761 763.261597,739.500977 776.577026,745.838135 
	C786.839172,750.722107 797.101929,755.691528 808.955994,756.923523 
	C813.933716,757.440857 819.288513,760.106750 824.523010,760.834534 
	C839.254883,762.882812 867.809937,769.965271 878.980957,775.538147 
	C884.990356,778.536133 891.342712,780.952576 896.536072,785.458435 
	C897.855286,786.602966 900.270630,785.975891 901.388123,786.678040 
	C904.504456,788.636169 906.251038,792.070251 907.464111,795.512634 
	C916.630310,821.525330 928.648315,846.071106 945.551208,867.960449 
	C961.760193,888.951294 981.722473,905.602112 1005.510559,917.478882 
	C1020.859131,925.141968 1037.381592,929.247925 1054.000244,932.999084 
	C1070.339966,936.687439 1086.983643,939.281860 1102.493408,946.015076 
	C1127.463501,956.855225 1144.350830,974.793152 1151.595337,1001.474121 
	C1153.837036,1009.730164 1155.431763,1018.096069 1155.846436,1026.507568 
	C1156.731812,1044.464722 1152.172974,1061.627441 1146.438843,1078.479248 
	C1146.180176,1079.239136 1145.870605,1080.537231 1144.500000,1080.500000 
"/>
<path fill="none" opacity="1.000000" stroke="#000000" stroke-linecap="round" stroke-linejoin="round" stroke-width="8.000000"
	d="
M1544.000000,1219.000000 
	C1544.785889,1221.084839 1546.719482,1221.853271 1548.514282,1222.457397 
	C1572.331787,1230.475098 1592.007080,1245.147705 1611.029663,1260.964355 
	C1621.374390,1269.565796 1630.494263,1279.204956 1636.939819,1291.032715 
	C1645.313721,1306.398438 1648.127197,1323.289185 1649.515015,1340.498779 
	C1650.078735,1347.490845 1650.489746,1354.471680 1650.561768,1361.499390 
	C1650.828735,1387.566650 1643.167725,1411.326904 1629.970825,1433.482666 
	C1622.504883,1446.017456 1613.881836,1457.678223 1604.094604,1468.584839 
	C1591.822144,1482.261108 1580.396484,1496.678223 1569.466675,1511.475342 
	C1565.035400,1517.474609 1559.715210,1522.697510 1554.000610,1527.500732 
	C1544.942383,1535.114014 1534.073486,1536.253296 1523.016846,1535.303589 
	C1518.364502,1534.903931 1513.472046,1536.316772 1509.000000,1534.000000 
"/>
<path fill="none" opacity="1.000000" stroke="#000000" stroke-linecap="round" stroke-linejoin="round" stroke-width="8.000000"
	d="
M1229.000000,1318.500000 
	C1231.393311,1321.226685 1231.474365,1324.857788 1231.857178,1328.017334 
	C1234.706299,1351.526611 1247.882324,1367.787964 1267.527954,1379.452881 
	C1283.505005,1388.939697 1301.035034,1393.638062 1319.500244,1394.996582 
	C1333.797119,1396.048340 1347.484131,1399.062622 1360.548340,1405.400391 
	C1382.261475,1415.933960 1397.374146,1432.205444 1403.261719,1455.560059 
	C1407.487305,1472.322876 1404.869873,1489.197021 1399.040039,1505.514282 
	C1395.310425,1515.953003 1390.362793,1525.845825 1386.006592,1536.002808 
	C1382.434692,1544.330933 1379.010010,1552.727661 1379.020630,1562.000000 
	C1379.031250,1571.182983 1385.269043,1575.421875 1394.014404,1572.543945 
	C1398.025757,1571.223877 1401.684204,1569.207642 1405.514771,1567.533691 
	C1410.917969,1565.172363 1416.435303,1564.459717 1422.510620,1564.820068 
	C1440.008911,1565.858032 1457.164551,1563.583740 1472.954712,1555.412354 
	C1481.626221,1550.924805 1490.637695,1547.031616 1498.544678,1541.059082 
	C1508.459595,1533.569946 1515.063110,1523.528809 1520.945923,1512.969849 
	C1531.380127,1494.241577 1537.316040,1473.906616 1541.504761,1453.000977 
	C1543.142334,1444.828491 1544.885254,1436.676514 1546.455444,1428.491455 
	C1546.763916,1426.884033 1546.500000,1425.166626 1546.500000,1423.500000 
"/>
<path fill="none" opacity="1.000000" stroke="#000000" stroke-linecap="round" stroke-linejoin="round" stroke-width="8.000000"
	d="
M591.500000,924.000000 
	C592.619812,920.457214 591.586609,917.609314 589.611084,914.430969 
	C583.853760,905.168213 579.338196,895.242737 580.083557,884.005554 
	C580.887085,871.891113 585.558044,861.265503 596.100159,854.659851 
	C602.995483,850.339355 610.984253,851.170532 618.488037,854.031311 
	C628.248596,857.752380 636.519775,863.122070 644.391052,870.587708 
	C654.010132,879.711182 660.697388,890.149292 666.422485,901.538940 
	C672.765930,914.158813 676.720276,927.643188 679.529907,941.493958 
	C686.493652,975.822632 697.256592,1008.470703 719.346375,1036.620605 
	C728.262268,1047.982422 737.877075,1058.371582 748.975098,1067.530151 
	C759.472900,1076.193359 770.420898,1084.078247 782.981079,1089.543457 
	C784.949402,1090.399780 786.796692,1091.672852 788.474670,1093.031250 
	C792.811584,1096.542603 793.136475,1101.251343 789.540710,1104.544434 
	C775.302063,1117.584106 763.499634,1132.750122 752.562073,1148.542969 
	C737.123352,1170.834961 724.078674,1194.445557 713.340149,1219.431274 
	C705.395752,1237.915894 698.477661,1256.658569 692.933899,1275.981079 
	C688.304016,1292.118164 684.444458,1308.368042 681.917542,1324.987427 
	C678.587219,1346.890747 676.764038,1368.905273 677.679321,1390.992554 
	C678.323669,1406.541138 679.599792,1422.087891 682.253113,1437.542358 
	C684.003174,1447.735352 686.830933,1457.713501 688.000000,1468.000000 
"/>
<path fill="none" opacity="1.000000" stroke="#000000" stroke-linecap="round" stroke-linejoin="round" stroke-width="7.000000"
	d="
M1047.500000,140.000000 
	C1048.740723,142.993042 1048.123535,145.423172 1046.056885,148.044861 
	C1030.618896,167.628998 1015.274658,187.287949 1000.014709,207.011398 
	C980.410583,232.349716 961.038940,257.859741 942.462402,283.973236 
	C922.860413,311.528229 903.556702,339.261230 886.480591,368.488678 
	C871.122498,394.775787 858.180420,422.216675 847.041565,450.516357 
	C843.122253,460.473785 838.762451,470.318298 837.000000,481.000000 
"/>
<path fill="none" opacity="1.000000" stroke="#000000" stroke-linecap="round" stroke-linejoin="round" stroke-width="6.000000"
	d="
M1237.000000,1023.000000 
	C1241.473389,1022.183350 1242.717773,1018.196045 1244.443115,1014.969604 
	C1257.281982,990.960632 1269.523926,966.658264 1280.013550,941.505615 
	C1287.982422,922.396973 1294.579712,902.788452 1298.274170,882.458984 
	C1300.635132,869.466614 1303.294678,856.517517 1305.364014,843.478455 
	C1306.139282,838.593567 1305.944702,833.411438 1304.485596,828.504272 
	C1302.230713,820.920898 1295.453979,819.557678 1290.025146,823.534241 
	C1283.921997,828.004761 1281.125854,834.811340 1278.564209,841.524475 
	C1272.414185,857.641235 1271.345825,874.379028 1272.366821,891.507935 
	C1273.188354,905.290222 1275.991211,918.635681 1279.026733,931.993958 
	C1279.151123,932.541382 1279.666626,933.000000 1280.000000,933.500000 
"/>
<path fill="none" opacity="1.000000" stroke="#000000" stroke-linecap="round" stroke-linejoin="round" stroke-width="7.000000"
	d="
M789.500000,1096.000000 
	C786.339539,1099.843262 781.577759,1101.172485 777.465149,1103.436646 
	C742.451050,1122.712402 708.244324,1143.377197 675.160339,1165.737183 
	C657.588257,1177.613403 640.251404,1190.013428 624.284546,1204.258545 
	C616.740479,1210.989136 608.217102,1216.779785 600.354675,1223.325439 
	C593.621216,1228.930908 586.997742,1234.696045 580.612976,1240.621704 
	C558.909668,1260.764282 538.273376,1281.953247 518.906799,1304.419678 
	C497.133850,1329.677856 476.562134,1355.839233 458.118835,1383.578979 
	C443.439423,1405.657593 430.429108,1428.748291 419.405121,1452.956787 
	C410.239136,1473.085083 402.496826,1493.737915 395.121613,1514.543091 
	C394.079010,1517.484497 392.512756,1519.205078 390.000000,1520.500000 
"/>
<path fill="none" opacity="1.000000" stroke="#000000" stroke-linecap="round" stroke-linejoin="round" stroke-width="8.000000"
	d="
M1086.500000,1385.000000 
	C1086.413086,1383.304321 1087.057129,1381.809814 1088.017944,1380.513306 
	C1092.240356,1374.816406 1097.920898,1370.656128 1103.569824,1366.597168 
	C1107.061279,1364.088379 1110.911011,1362.341797 1114.163086,1359.166992 
	C1119.281860,1354.169800 1126.306763,1351.912720 1133.007690,1349.521606 
	C1156.361572,1341.187500 1180.604980,1335.693726 1203.987793,1327.465454 
	C1225.863037,1319.767578 1246.773438,1310.341797 1263.531860,1293.531860 
	C1275.567383,1281.459351 1283.879150,1267.276855 1286.291016,1250.469971 
	C1288.181030,1237.299072 1288.547241,1223.891968 1287.604004,1210.492676 
	C1287.112793,1203.513550 1287.247681,1196.496582 1286.559814,1189.494141 
	C1284.444702,1167.963135 1277.873901,1148.440918 1262.538696,1132.462891 
	C1255.671143,1125.307495 1247.727295,1119.837280 1238.470703,1116.583252 
	C1227.011230,1112.554932 1216.613770,1115.992065 1207.021851,1122.531982 
	C1203.886841,1124.669556 1201.090820,1127.050781 1197.020142,1127.639160 
	C1194.040161,1128.069824 1192.194580,1130.977783 1189.984741,1132.983154 
	C1185.590820,1136.970581 1181.037720,1140.409180 1174.495117,1140.103271 
	C1170.778809,1139.929565 1167.807251,1138.998657 1164.939941,1136.570923 
	C1161.509033,1133.666138 1156.859131,1132.271362 1154.488525,1128.006348 
	C1151.927124,1123.398071 1147.899048,1119.471069 1148.416382,1113.492798 
	C1148.551514,1111.930908 1147.843628,1110.233032 1146.510132,1108.989136 
	C1142.609497,1105.350464 1142.351562,1100.075073 1141.162720,1095.458130 
	C1138.404297,1084.746094 1132.377686,1075.886963 1123.329102,1070.804321 
	C1108.501465,1062.475586 1097.929077,1050.545044 1088.466797,1037.023315 
	C1079.117432,1023.663208 1065.782349,1014.607910 1052.992310,1005.010254 
	C1041.044434,996.044556 1027.625977,990.041748 1012.971069,987.679504 
	C1002.453125,985.984131 991.752197,986.065186 980.976257,987.291321 
	C969.905518,988.551086 959.300293,991.059570 949.015442,995.039856 
	C928.502747,1002.978455 912.280090,1015.925903 901.375122,1035.430176 
	C897.334717,1042.656860 892.440369,1049.742432 883.493713,1051.974854 
	C880.199219,1052.796875 876.793640,1053.179688 873.507080,1054.027466 
	C861.350281,1057.163452 856.511353,1066.850708 853.054138,1077.517578 
	C850.855835,1084.300049 850.615479,1091.556396 849.091553,1098.409180 
	C848.070251,1103.001953 848.742554,1107.164551 848.544495,1111.502075 
	C848.353271,1115.687134 846.830505,1119.753540 847.501221,1123.999756 
	C847.659363,1125.001099 847.833313,1126.000000 848.000000,1127.000000 
"/>
<path fill="none" opacity="1.000000" stroke="#000000" stroke-linecap="round" stroke-linejoin="round" stroke-width="8.000000"
	d="
M644.500000,753.500000 
	C636.672180,750.172913 628.228577,749.643311 619.984253,748.627930 
	C607.067017,747.037109 594.008179,746.614563 581.002991,747.083069 
	C562.408325,747.753052 543.906738,749.325745 525.473511,752.338013 
	C504.318970,755.795044 483.673340,760.907959 463.510406,768.029480 
	C438.180664,776.975830 414.975739,789.881165 393.480072,805.973389 
	C377.800537,817.711487 362.520264,829.969666 347.673828,842.702698 
	C342.306793,847.305847 335.217346,849.986450 331.327850,856.123352 
	C332.308624,860.818970 336.614288,860.348450 339.039490,860.776001 
	C368.382294,865.948181 392.642212,881.234375 416.009979,898.486511 
	C439.123016,915.550598 460.429504,934.892822 483.524261,951.967163 
	C499.396881,963.701965 515.477600,975.117859 534.488281,981.534729 
	C549.345581,986.549744 564.569641,989.875854 579.989075,992.562622 
	C589.778503,994.268372 599.604126,994.893677 609.499939,995.003113 
	C621.588867,995.136780 633.412903,992.978516 644.965881,989.872986 
	C658.066284,986.351501 670.979614,982.054321 682.532471,974.549988 
	C683.622437,973.842041 685.166687,973.833435 686.500000,973.500061 
"/>
<path fill="none" opacity="1.000000" stroke="#000000" stroke-linecap="round" stroke-linejoin="round" stroke-width="8.000000"
	d="
M622.000000,1207.500000 
	C623.444031,1210.316162 621.794495,1212.011475 620.048340,1214.041626 
	C605.952209,1230.429565 592.934021,1247.631104 581.501160,1266.000732 
	C566.532959,1290.050537 554.298828,1315.429443 544.491455,1341.996826 
	C536.540771,1363.534790 530.557434,1385.628662 525.479736,1407.995361 
	C521.197998,1426.855591 517.592163,1445.849121 515.100586,1465.013062 
	C513.271179,1479.084595 512.306885,1493.272949 512.500000,1507.500000 
"/>
<path fill="none" opacity="1.000000" stroke="#000000" stroke-linecap="round" stroke-linejoin="round" stroke-width="8.000000"
	d="
M1465.500000,492.500000 
	C1472.877441,492.647278 1480.201660,492.032104 1487.500488,491.003723 
	C1502.140747,488.941071 1515.255127,493.047394 1526.946777,501.572998 
	C1536.046143,508.208221 1544.557373,515.643799 1553.528687,522.462219 
	C1563.861938,530.315857 1576.052734,533.712280 1588.489746,536.545166 
	C1602.080078,539.640686 1615.843506,541.797607 1628.579102,548.346130 
	C1645.554077,557.074341 1650.377319,571.729431 1648.884277,587.489014 
	C1647.821899,598.704590 1642.401855,608.378174 1636.015137,617.510620 
	C1624.847046,633.480408 1611.419067,647.516174 1597.906128,661.408691 
	C1586.663452,672.967163 1579.163452,686.698608 1574.310791,701.601196 
	C1571.264893,710.955261 1569.787598,720.937683 1567.025269,730.507263 
	C1562.378296,746.605713 1553.699463,760.509338 1543.448853,773.459534 
	C1530.655640,789.621948 1515.576050,803.544922 1500.065308,817.074829 
	C1486.915405,828.545288 1474.294922,840.625427 1461.514893,852.515991 
	C1454.265747,859.260681 1447.163818,866.163757 1440.003052,873.003235 
	C1438.980591,873.979736 1437.464600,874.831482 1437.088013,876.027710 
	C1434.858398,883.112549 1428.782227,883.509033 1422.999756,884.498718 
	C1402.084595,888.078491 1381.238281,891.976990 1362.018188,901.536438 
	C1351.311890,906.861389 1341.552124,913.655518 1332.482544,921.479736 
	C1315.394775,936.221008 1301.457764,953.670532 1288.442871,971.959290 
	C1286.820557,974.238770 1284.846680,976.680298 1281.972412,977.388123 
	C1280.268677,977.807678 1279.677734,978.908325 1279.031006,980.018066 
	C1268.653687,997.825745 1258.437622,1015.728516 1247.922363,1033.453979 
	C1245.467651,1037.592041 1242.670166,1041.170532 1243.856812,1046.531738 
	C1244.436279,1049.149414 1242.272095,1051.633911 1240.966553,1053.981445 
	C1238.244141,1058.876465 1235.408936,1063.713379 1232.466553,1068.479248 
	C1231.107666,1070.680298 1229.927734,1072.703979 1230.435181,1075.511719 
	C1230.952271,1078.373901 1228.344604,1079.929932 1226.998413,1081.999023 
	C1224.543335,1085.772217 1220.178589,1088.589233 1221.000000,1094.000000 
"/>
<path fill="none" opacity="1.000000" stroke="#000000" stroke-linecap="round" stroke-linejoin="round" stroke-width="8.000000"
	d="
M1234.000000,1577.500000 
	C1231.580688,1580.297729 1231.289307,1583.453247 1231.960327,1587.007446 
	C1234.647461,1601.240234 1236.764404,1615.539062 1238.163330,1629.984131 
	C1239.180786,1640.488892 1240.268311,1651.011353 1241.567017,1661.491699 
	C1244.311401,1683.635986 1246.497437,1705.898682 1252.526611,1727.492554 
	C1257.231201,1744.342163 1266.505127,1758.734741 1276.954590,1772.534302 
	C1286.544922,1785.199463 1297.467285,1796.718872 1307.563477,1808.947632 
	C1320.345337,1824.429077 1329.958740,1841.564941 1336.545532,1860.484131 
	C1337.456055,1863.099487 1337.979126,1866.144287 1341.000000,1867.500000 
"/>
<path fill="none" opacity="1.000000" stroke="#000000" stroke-linecap="round" stroke-linejoin="round" stroke-width="8.000000"
	d="
M1114.000000,1416.500000 
	C1117.382202,1416.333618 1120.088013,1417.663940 1122.516724,1419.982544 
	C1142.625977,1439.180176 1160.445801,1460.384155 1176.403687,1483.067749 
	C1192.013062,1505.256226 1206.759888,1528.050049 1222.045166,1550.469238 
	C1226.581787,1557.123413 1229.810669,1564.423950 1233.444946,1571.528198 
	C1234.344849,1573.287598 1234.733887,1575.632690 1236.534912,1576.420166 
	C1244.330688,1579.828735 1248.220703,1587.071777 1253.546509,1592.957886 
	C1265.983154,1606.703369 1279.625732,1619.198242 1293.377319,1631.635742 
	C1308.384521,1645.208496 1322.609741,1659.746216 1333.421631,1677.048950 
	C1341.481934,1689.948486 1347.174561,1703.802612 1346.499023,1719.500000 
	C1346.119629,1728.314087 1344.261475,1736.839111 1338.883911,1743.911743 
	C1334.861328,1749.202393 1333.581177,1754.444214 1336.026733,1760.489136 
	C1339.567871,1769.241333 1342.182983,1778.300659 1343.857178,1787.525879 
	C1345.225342,1795.065186 1345.744507,1802.824341 1345.912598,1810.501953 
	C1346.241089,1825.513062 1346.190796,1840.540771 1344.471802,1855.496704 
	C1344.354004,1856.521484 1343.833374,1857.500000 1343.500000,1858.500000 
"/>
<path fill="none" opacity="1.000000" stroke="#000000" stroke-linecap="round" stroke-linejoin="round" stroke-width="6.000000"
	d="
M1152.500000,1123.500000 
	C1158.782959,1119.707275 1160.619385,1112.810547 1163.992432,1106.995605 
	C1176.646973,1085.179688 1183.698364,1061.296387 1189.434937,1036.984619 
	C1192.305298,1024.819946 1194.238525,1012.490417 1195.672852,1000.019897 
	C1198.262939,977.500732 1198.267090,955.244568 1193.560547,932.987183 
	C1190.006958,916.182068 1184.016724,900.166260 1178.430420,884.024109 
	C1173.907593,870.955139 1171.724487,857.359131 1168.528564,843.993164 
	C1162.952148,820.671997 1158.098389,797.159058 1148.526733,774.988464 
	C1143.896362,764.263184 1138.146240,754.224854 1130.954834,745.035339 
	C1129.720093,743.457520 1127.818848,742.504700 1126.072998,741.386047 
	C1118.588013,736.590210 1111.725952,740.560791 1110.550171,749.506592 
	C1109.377197,758.431519 1110.119141,767.493286 1112.689941,775.942200 
	C1117.219238,790.827942 1122.221802,805.614746 1129.468384,819.516479 
	C1137.065308,834.090515 1147.286987,846.785095 1157.514038,859.488770 
	C1160.925537,863.726562 1164.534058,867.805298 1167.986206,872.011353 
	C1169.833740,874.262390 1171.953369,875.664490 1175.000000,875.000000 
"/>
<path fill="none" opacity="1.000000" stroke="#000000" stroke-linecap="round" stroke-linejoin="round" stroke-width="7.000000"
	d="
M1220.000000,1029.500000 
	C1215.787354,1025.595093 1217.918457,1020.754700 1218.647095,1016.525330 
	C1220.163940,1007.721741 1221.016846,998.854126 1221.374878,989.994934 
	C1221.872681,977.681763 1222.313599,965.268860 1221.342407,953.012512 
	C1218.768799,920.532166 1218.669434,888.015503 1219.142578,855.502075 
	C1219.400391,837.786194 1221.451172,820.134216 1223.348511,802.483704 
	C1225.988403,777.923340 1230.721924,753.828003 1237.043457,730.011536 
	C1239.840332,719.474182 1242.802246,709.000366 1242.985962,697.999756 
	C1243.046509,694.376526 1242.270264,690.918640 1239.980713,688.015259 
	C1237.711914,685.138428 1234.653076,685.079834 1232.049316,687.064697 
	C1225.259277,692.240784 1221.740967,699.629700 1218.982178,707.493774 
	C1210.225952,732.453979 1207.315918,758.239319 1208.607422,784.494690 
	C1209.204224,796.628113 1211.471191,808.558533 1215.844482,820.059143 
	C1216.914551,822.873291 1218.264893,823.102722 1220.500000,823.000000 
"/>
<path fill="none" opacity="1.000000" stroke="#000000" stroke-linecap="round" stroke-linejoin="round" stroke-width="4.000000"
	d="
M1238.500000,1579.000000 
	C1237.916138,1583.141479 1238.990845,1586.787109 1240.924316,1590.538940 
	C1251.255371,1610.586792 1262.788208,1629.948975 1273.879395,1649.568237 
	C1286.403564,1671.722412 1297.321045,1694.750732 1306.414551,1718.532715 
	C1317.830078,1748.386963 1325.644653,1779.303833 1332.628784,1810.471191 
	C1336.046997,1825.725586 1338.067749,1841.184937 1341.000000,1856.500000 
"/>
<path fill="none" opacity="1.000000" stroke="#000000" stroke-linecap="round" stroke-linejoin="round" stroke-width="6.000000"
	d="
M1194.000000,1089.000000 
	C1189.114746,1082.790894 1190.995117,1076.529663 1193.439819,1069.977539 
	C1200.259277,1051.699341 1204.618530,1032.819824 1207.633911,1013.520935 
	C1210.726196,993.729187 1211.063599,973.858521 1210.301636,954.007629 
	C1209.731689,939.157471 1208.255371,924.307861 1206.762085,909.473633 
	C1204.324463,885.257996 1197.257568,862.253418 1190.947754,839.014160 
	C1187.557495,826.527283 1185.097778,813.860413 1184.663696,800.994507 
	C1184.284180,789.743530 1185.885254,778.509888 1188.507446,767.501770 
	C1192.479248,750.828369 1196.921265,734.250427 1200.260742,717.452454 
	C1201.359375,711.926208 1201.202026,705.817871 1199.569946,699.980469 
	C1197.426636,692.314514 1190.030151,691.364136 1184.993652,695.993042 
	C1181.749634,698.974426 1179.236328,702.489075 1177.522827,706.509705 
	C1172.666748,717.904663 1169.817383,729.852295 1167.382568,741.976379 
	C1165.643555,750.635559 1165.343994,759.281494 1165.524902,767.999512 
	C1165.877075,784.972473 1170.616455,800.838440 1178.003418,815.998352 
	C1179.145996,818.343445 1180.414429,820.630432 1181.477783,823.009949 
	C1182.583008,825.483398 1184.414795,826.378479 1187.000000,826.000000 
"/>
<path fill="none" opacity="1.000000" stroke="#000000" stroke-linecap="round" stroke-linejoin="round" stroke-width="8.000000"
	d="
M1146.000000,1495.500000 
	C1143.442505,1496.010254 1141.876953,1497.915527 1141.063843,1500.024658 
	C1134.505371,1517.036865 1121.441040,1528.406128 1107.484009,1538.978882 
	C1096.563843,1547.250977 1085.035522,1554.790771 1074.652466,1563.678223 
	C1066.867188,1570.342041 1060.176758,1578.287598 1058.848511,1589.482056 
	C1058.208374,1594.877441 1059.191040,1599.773682 1061.137817,1604.442505 
	C1062.647583,1608.063232 1061.609741,1609.832031 1058.490845,1610.975098 
	C1044.317017,1616.170166 1035.058105,1626.324707 1029.565552,1640.026245 
	C1026.503296,1647.665405 1025.127930,1655.848877 1024.604126,1664.006714 
	C1023.779358,1676.851318 1024.757812,1689.713623 1026.075806,1702.492188 
	C1027.505981,1716.360107 1028.107300,1730.196411 1025.841431,1743.973877 
	C1025.407959,1746.610107 1026.518066,1748.356201 1027.000000,1750.500000 
"/>
<path fill="none" opacity="1.000000" stroke="#000000" stroke-linecap="round" stroke-linejoin="round" stroke-width="8.000000"
	d="
M601.500000,809.000000 
	C596.911316,804.432739 590.574768,804.686279 584.968384,803.675354 
	C569.130432,800.819397 553.188538,798.668762 537.005127,798.284546 
	C531.205444,798.146973 525.318542,797.175110 519.506104,797.585938 
	C507.662964,798.423096 495.812286,798.915222 483.978455,800.318298 
	C462.540710,802.859985 441.790588,807.801514 421.494324,814.983948 
	C406.393890,820.327576 391.786194,826.777649 377.491150,833.982422 
	C368.705536,838.410461 359.691376,842.408997 351.083527,847.151611 
	C348.381287,848.640381 346.666656,848.069519 344.500000,847.000000 
"/>
<path fill="none" opacity="1.000000" stroke="#000000" stroke-linecap="round" stroke-linejoin="round" stroke-width="8.000000"
	d="
M1380.500000,1313.500000 
	C1408.313354,1332.040771 1425.739990,1358.918457 1440.539429,1387.979980 
	C1448.022095,1402.673706 1453.148560,1418.208008 1457.360352,1434.037231 
	C1458.895142,1439.806152 1459.323120,1445.993652 1459.400391,1452.001221 
	C1459.574097,1465.501831 1460.291504,1479.060425 1458.450562,1492.493286 
	C1455.491821,1514.082886 1449.898438,1534.887085 1439.029053,1554.016479 
	C1437.194336,1557.245605 1434.885254,1560.406250 1435.500000,1564.500000 
"/>
<path fill="none" opacity="1.000000" stroke="#000000" stroke-linecap="round" stroke-linejoin="round" stroke-width="8.000000"
	d="
M1786.500000,1055.750000 
	C1787.530640,1056.470581 1788.398193,1055.814453 1788.446411,1054.996826 
	C1789.343750,1039.790771 1791.617188,1024.580200 1787.038330,1009.488342 
	C1777.801514,979.044067 1760.069702,955.041687 1733.517090,937.474121 
	C1718.910889,927.810486 1702.917480,921.361572 1685.972412,917.624939 
	C1665.722290,913.159424 1645.298340,914.233765 1625.003052,918.016418 
	C1617.697876,919.377930 1610.561768,921.766846 1602.999878,921.503113 
	C1602.334106,921.479858 1601.520630,921.247925 1601.021484,921.537048 
	C1589.410522,928.263367 1576.058960,928.715088 1563.494629,931.979187 
	C1554.323730,934.361755 1544.833130,934.743958 1535.481201,935.839966 
	C1529.581787,936.531372 1523.500000,935.666626 1517.500000,935.500000 
"/>
<path fill="none" opacity="1.000000" stroke="#000000" stroke-linecap="round" stroke-linejoin="round" stroke-width="6.000000"
	d="
M1774.500000,1068.500000 
	C1739.614624,1042.582275 1701.775879,1022.165588 1660.460327,1008.620972 
	C1639.175171,1001.643005 1617.236084,996.906921 1594.984253,994.125610 
	C1586.567993,993.073669 1577.981201,992.962158 1569.517212,992.284363 
	C1554.265869,991.062988 1539.167725,992.921204 1524.000122,993.020752 
	C1523.499023,993.023987 1523.000000,993.333374 1522.500000,993.500061 
"/>
<path fill="none" opacity="1.000000" stroke="#000000" stroke-linecap="round" stroke-linejoin="round" stroke-width="6.000000"
	d="
M664.500000,1258.500000 
	C653.635010,1276.145996 644.919800,1294.847168 638.602539,1314.532959 
	C631.039368,1338.101074 626.339111,1362.352173 624.060181,1387.005615 
	C622.646423,1402.298950 622.045105,1417.577759 623.281860,1433.017456 
	C624.545776,1448.796875 626.821777,1464.283325 631.040161,1479.488892 
	C633.628662,1488.819092 637.380737,1497.740845 641.500000,1506.500000 
"/>
<path fill="none" opacity="1.000000" stroke="#000000" stroke-linecap="round" stroke-linejoin="round" stroke-width="5.000000"
	d="
M1147.000000,1503.500000 
	C1143.554199,1506.099609 1144.762329,1510.262939 1144.216064,1513.536011 
	C1141.732056,1528.417358 1136.799561,1542.350830 1130.585693,1556.038818 
	C1118.963135,1581.641479 1102.318848,1604.048462 1086.494263,1626.996094 
	C1076.286133,1641.799316 1065.882690,1656.427979 1058.396729,1672.953247 
	C1052.302368,1686.406372 1047.560547,1700.357788 1042.061646,1714.024780 
	C1039.075562,1721.446289 1035.954102,1728.788696 1032.530029,1736.014282 
	C1031.475464,1738.239746 1030.244019,1739.872314 1027.500000,1739.500000 
"/>
<path fill="none" opacity="1.000000" stroke="#000000" stroke-linecap="round" stroke-linejoin="round" stroke-width="8.000000"
	d="
M1316.000000,900.000000 
	C1318.496948,899.715637 1320.565552,898.449280 1322.489868,896.986694 
	C1336.898315,886.035706 1353.819336,881.216370 1370.998535,876.993958 
	C1387.211670,873.008972 1403.788940,870.435913 1419.507812,864.520874 
	C1419.945801,864.356018 1420.574463,864.663330 1420.988403,864.474609 
	C1424.956543,862.665649 1428.649292,858.131714 1427.951050,855.513062 
	C1426.482056,850.003235 1421.447876,848.685852 1416.974365,847.606079 
	C1398.341309,843.108337 1380.431152,846.021301 1362.985596,853.466309 
	C1343.443970,861.805908 1328.536987,875.410217 1316.993652,892.995850 
	C1315.886841,894.682068 1314.696533,896.259277 1315.470337,898.510193 
	C1315.977905,899.986938 1314.758911,900.874573 1314.059814,902.035950 
	C1302.110474,921.886108 1291.233887,942.260315 1282.832642,963.935120 
	C1281.065186,968.495117 1278.425537,972.461548 1280.500000,977.500000 
"/>
<path fill="none" opacity="1.000000" stroke="#000000" stroke-linecap="round" stroke-linejoin="round" stroke-width="7.000000"
	d="
M1092.000000,1390.000000 
	C1097.784302,1389.372681 1102.462402,1392.416382 1107.523804,1394.440552 
	C1140.416504,1407.594482 1169.232544,1427.233521 1196.557007,1449.429932 
	C1209.686523,1460.095581 1223.196045,1470.208496 1238.933105,1477.151611 
	C1251.923096,1482.882935 1264.885132,1484.949829 1279.023804,1483.190918 
	C1293.583374,1481.379639 1308.343994,1481.138916 1322.987061,1483.096436 
	C1324.914429,1483.354126 1326.666626,1483.496704 1328.692383,1483.118042 
	C1328.005615,1478.047363 1324.160889,1475.127075 1321.490723,1471.506836 
	C1308.839478,1454.354126 1294.981323,1438.328613 1276.958740,1426.563232 
	C1266.519165,1419.748291 1255.164673,1415.014771 1242.505249,1413.937988 
	C1239.635986,1413.693848 1236.848755,1412.589355 1233.995483,1412.022583 
	C1231.420288,1411.511230 1230.054321,1409.601929 1229.570679,1407.483887 
	C1225.785156,1390.900635 1213.694214,1382.370728 1199.537598,1375.423462 
	C1187.268311,1369.402466 1174.263306,1365.873657 1160.973389,1363.659424 
	C1149.266968,1361.709106 1137.325928,1361.726685 1125.503540,1363.523560 
	C1120.612305,1364.266846 1115.731689,1366.115601 1111.000000,1363.000000 
"/>
<path fill="none" opacity="1.000000" stroke="#000000" stroke-linecap="round" stroke-linejoin="round" stroke-width="6.000000"
	d="
M1140.500000,1096.000000 
	C1138.067993,1096.649902 1136.292114,1096.214600 1133.904541,1094.645264 
	C1105.748657,1076.138672 1074.379517,1066.071777 1041.508545,1059.954346 
	C1023.295898,1056.564941 1004.907715,1054.881714 986.512329,1056.175293 
	C960.746948,1057.986938 935.884521,1063.645996 913.993530,1078.490479 
	C913.879333,1078.567871 913.666687,1078.500000 913.500000,1078.500000 
"/>
<path fill="none" opacity="1.000000" stroke="#000000" stroke-linecap="round" stroke-linejoin="round" stroke-width="8.000000"
	d="
M1145.500000,1113.000000 
	C1139.382202,1115.398193 1134.346924,1111.357056 1129.048218,1109.832520 
	C1116.791016,1106.305542 1104.583374,1102.792603 1092.020386,1100.393555 
	C1078.763550,1097.861938 1065.426392,1096.440674 1052.000854,1096.583496 
	C1020.004456,1096.923950 990.125977,1105.153320 962.474792,1121.457153 
	C949.030273,1129.384521 936.892883,1139.009033 925.019897,1149.023560 
	C923.045166,1150.689209 921.333435,1152.666748 919.500061,1154.500122 
"/>
<path fill="none" opacity="1.000000" stroke="#000000" stroke-linecap="round" stroke-linejoin="round" stroke-width="4.000000"
	d="
M1316.500000,1474.500000 
	C1306.333374,1468.500000 1296.384155,1462.084473 1285.939209,1456.616089 
	C1275.381836,1451.088989 1264.506104,1446.073853 1253.460693,1441.596802 
	C1235.521118,1434.325195 1218.366699,1425.457642 1200.983032,1417.035034 
	C1179.558716,1406.654785 1158.140747,1396.264771 1135.018555,1389.932007 
	C1123.346802,1386.735352 1111.568726,1384.624756 1099.500977,1383.980835 
	C1096.742432,1383.833740 1094.196533,1384.195312 1092.000000,1386.000000 
"/>
<path fill="none" opacity="1.000000" stroke="#000000" stroke-linecap="round" stroke-linejoin="round" stroke-width="8.000000"
	d="
M1148.500000,1111.000000 
	C1152.993408,1108.030151 1153.360840,1102.895874 1154.370239,1098.470337 
	C1158.192871,1081.710571 1162.514038,1064.965576 1164.729736,1047.964722 
	C1167.204834,1028.973511 1168.976196,1009.850464 1167.235107,990.478882 
	C1165.862061,975.201233 1164.017456,960.122131 1159.425415,945.523438 
	C1154.230225,929.007080 1147.007690,913.469604 1134.488892,901.011230 
	C1120.444702,887.034912 1103.161499,879.420654 1084.004028,875.480286 
	C1072.367310,873.086792 1061.730347,875.297974 1052.008423,882.012268 
	C1046.600586,885.747070 1042.627686,893.564636 1049.486816,901.012085 
	C1058.931396,911.266785 1071.301392,914.714294 1084.495361,916.533875 
	C1096.296509,918.161377 1108.178467,917.086182 1120.005127,917.928345 
	C1127.525757,918.463928 1135.085327,918.657959 1141.957031,922.086243 
	C1144.555664,923.382812 1146.666626,922.761841 1149.000000,922.000000 
"/>
<path fill="none" opacity="1.000000" stroke="#000000" stroke-linecap="round" stroke-linejoin="round" stroke-width="8.000000"
	d="
M1493.000000,490.250000 
	C1493.130615,489.164642 1492.790771,488.125305 1491.980591,487.526337 
	C1483.339722,481.137848 1479.592285,471.353394 1474.495483,462.502625 
	C1472.036377,458.232513 1469.257690,454.318909 1465.035522,451.447845 
	C1458.266113,446.844879 1450.956177,447.350067 1443.501587,448.509979 
	C1436.056030,449.668457 1429.013306,452.451935 1421.524780,453.654572 
	C1412.824463,455.051910 1404.379028,453.802399 1396.021240,452.375702 
	C1375.165405,448.815552 1357.255493,455.111176 1340.462402,466.946594 
	C1316.697754,483.695496 1299.045532,505.565887 1285.513794,531.007324 
	C1275.516724,549.802856 1268.187866,569.692444 1262.096802,590.028992 
	C1260.457031,595.504089 1260.072266,601.347473 1258.966553,606.993469 
	C1258.483521,609.460205 1258.240967,612.181030 1255.500000,613.500000 
"/>
<path fill="none" opacity="1.000000" stroke="#000000" stroke-linecap="round" stroke-linejoin="round" stroke-width="8.000000"
	d="
M472.000000,357.000000 
	C470.783508,360.709961 473.067383,363.857758 474.150970,366.947052 
	C480.391571,384.738464 484.444885,403.088074 487.802856,421.535889 
	C489.893799,433.023102 491.148376,444.723267 491.681396,456.491791 
	C492.043793,464.493988 492.968781,472.523224 492.393494,480.492310 
	C491.291656,495.755554 489.711731,510.941467 486.748993,526.048828 
	C484.284973,538.613037 481.172821,551.001343 478.487183,563.497253 
	C477.909943,566.183228 476.412170,568.644714 476.500000,571.500000 
"/>
<path fill="none" opacity="1.000000" stroke="#000000" stroke-linecap="round" stroke-linejoin="round" stroke-width="7.000000"
	d="
M1465.500000,1392.500000 
	C1460.703491,1379.008301 1453.884644,1366.468872 1446.947754,1354.029175 
	C1432.318726,1327.796021 1415.098755,1303.393799 1395.045654,1280.959229 
	C1373.511108,1256.867554 1349.684814,1235.353638 1323.420776,1216.611084 
	C1315.067017,1210.649780 1306.362305,1204.947876 1296.500000,1201.500000 
"/>
<path fill="none" opacity="1.000000" stroke="#000000" stroke-linecap="round" stroke-linejoin="round" stroke-width="7.000000"
	d="
M751.500000,1204.500000 
	C745.472412,1215.396973 739.205872,1226.151001 733.945862,1237.474854 
	C724.451172,1257.915405 716.778076,1278.932129 711.960571,1300.991333 
	C708.105774,1318.642700 705.821533,1336.411865 704.766846,1354.486450 
	C703.816895,1370.766846 704.972290,1386.853638 706.084534,1402.994141 
	C706.371460,1407.157715 707.639282,1411.256592 707.500000,1415.500000 
"/>
<path fill="none" opacity="1.000000" stroke="#000000" stroke-linecap="round" stroke-linejoin="round" stroke-width="8.000000"
	d="
M829.000000,505.500000 
	C825.578735,514.928406 823.561951,524.740051 821.586304,534.517456 
	C818.906311,547.780701 816.271362,561.100464 814.689514,574.522339 
	C813.559570,584.109314 813.011414,593.834167 812.237122,603.478882 
	C811.310730,615.018860 811.373840,626.516296 811.621826,637.997375 
	C812.139038,661.952759 814.238953,685.823425 818.060242,709.490295 
	C820.517639,724.710510 823.443665,739.857422 828.424500,754.525635 
	C828.982666,756.169434 828.500000,758.166687 828.500000,760.000000 
"/>
<path fill="none" opacity="1.000000" stroke="#000000" stroke-linecap="round" stroke-linejoin="round" stroke-width="8.000000"
	d="
M801.500000,475.750000 
	C806.643860,472.515961 811.040894,476.033905 815.465210,477.598419 
	C822.318420,480.021881 829.328796,480.731079 836.452881,481.810852 
	C856.835449,484.900146 876.530884,480.130310 896.500427,478.505219 
	C918.138733,476.744324 939.648193,476.694580 960.494995,484.014343 
	C975.367310,489.236328 988.663574,497.353943 1000.968445,507.040131 
	C1022.027710,523.617554 1039.513794,543.474976 1055.702026,564.846985 
	C1075.133545,590.500671 1089.196289,619.013123 1103.483398,647.508362 
	C1103.616943,647.774719 1103.500000,648.166687 1103.500000,648.500000 
"/>
<path fill="none" opacity="1.000000" stroke="#000000" stroke-linecap="round" stroke-linejoin="round" stroke-width="5.000000"
	d="
M1123.000000,1070.000000 
	C1124.104614,1066.182129 1122.703125,1063.373657 1120.686523,1059.891968 
	C1106.355835,1035.149658 1088.277710,1013.425232 1067.944092,993.557190 
	C1045.748413,971.869629 1020.919800,953.597778 993.476135,939.044983 
	C976.757446,930.179321 959.491638,922.478638 941.500000,916.500000 
"/>
<path fill="none" opacity="1.000000" stroke="#000000" stroke-linecap="round" stroke-linejoin="round" stroke-width="7.000000"
	d="
M1440.500000,1067.500000 
	C1422.523438,1066.160889 1404.518677,1064.927002 1386.501099,1065.111816 
	C1367.193115,1065.309692 1348.038574,1067.301514 1328.974365,1070.862549 
	C1299.180786,1076.427979 1271.188599,1086.309937 1245.491821,1102.487061 
	C1243.219727,1103.917480 1240.833374,1105.166748 1238.500000,1106.500122 
"/>
<path fill="none" opacity="1.000000" stroke="#000000" stroke-linecap="round" stroke-linejoin="round" stroke-width="3.000000"
	d="
M1458.500000,520.500000 
	C1436.201904,546.490356 1414.520996,572.998413 1395.596558,601.563904 
	C1378.425903,627.481812 1363.797485,654.895569 1350.513672,683.006470 
	C1345.097656,694.467407 1339.833252,706.000000 1334.500000,717.500000 
"/>
<path fill="none" opacity="1.000000" stroke="#000000" stroke-linecap="round" stroke-linejoin="round" stroke-width="7.000000"
	d="
M652.500000,764.500000 
	C657.112732,766.177673 661.819153,764.549561 666.509888,764.840332 
	C687.203491,766.122864 706.972290,771.316040 725.947815,779.126831 
	C754.648071,790.940491 781.584229,806.158691 806.987793,824.017334 
	C818.648560,832.214722 829.562439,841.377014 840.500000,850.500000 
"/>
<path fill="none" opacity="1.000000" stroke="#000000" stroke-linecap="round" stroke-linejoin="round" stroke-width="3.000000"
	d="
M667.500000,855.500000 
	C687.388550,876.935181 702.627136,901.818970 719.576416,925.445190 
	C731.048401,941.436523 743.314270,956.810791 756.360718,971.622681 
	C772.181580,989.584290 789.596558,1005.593018 809.026611,1019.462708 
	C813.650146,1022.763062 818.305603,1026.081665 823.500000,1028.500000 
"/>
<path fill="none" opacity="1.000000" stroke="#000000" stroke-linecap="round" stroke-linejoin="round" stroke-width="6.000000"
	d="
M1336.500000,997.500000 
	C1336.708740,995.979492 1337.292480,995.208191 1338.943115,994.385803 
	C1357.677490,985.051697 1377.014038,980.138062 1398.005615,984.975464 
	C1411.246338,988.026672 1422.077881,995.023926 1430.879517,1005.105225 
	C1432.796387,1007.300903 1435.341919,1008.799072 1436.698853,1011.913330 
	C1439.593872,1018.557251 1437.258789,1021.850769 1429.986694,1022.908203 
	C1426.104614,1023.472595 1422.313843,1021.819519 1418.484009,1021.083069 
	C1411.281494,1019.697937 1404.833374,1015.927795 1397.517456,1014.878235 
	C1395.451294,1014.581848 1394.061523,1014.845825 1392.484253,1015.978088 
	C1388.171265,1019.074158 1382.838501,1019.242310 1377.974121,1020.661377 
	C1346.036743,1029.978027 1314.715820,1040.935669 1285.038574,1056.075562 
	C1265.449341,1066.068970 1246.814941,1077.691528 1230.051636,1092.060303 
	C1228.480347,1093.406982 1226.601807,1094.466064 1225.012207,1094.342773 
	C1220.931519,1094.026123 1218.769165,1096.162109 1216.448486,1098.957275 
	C1210.941772,1105.589966 1205.414307,1112.242798 1199.388306,1118.390503 
	C1196.660767,1121.173096 1195.625610,1123.900757 1196.000000,1127.500000 
"/>
<path fill="none" opacity="1.000000" stroke="#000000" stroke-linecap="round" stroke-linejoin="round" stroke-width="5.000000"
	d="
M1517.500000,513.500000 
	C1499.628906,529.852966 1483.139038,547.490356 1467.434692,565.944458 
	C1437.412842,601.222473 1413.225586,640.355530 1390.500000,680.500000 
"/>
<path fill="none" opacity="1.000000" stroke="#000000" stroke-linecap="round" stroke-linejoin="round" stroke-width="7.000000"
	d="
M393.500000,340.500000 
	C394.833313,349.166656 396.434601,357.803192 397.413971,366.509674 
	C398.177216,373.294678 398.243958,380.164001 398.479218,387.000702 
	C398.737183,394.497589 399.251404,402.018890 398.913483,409.496094 
	C398.197266,425.342255 397.201324,441.182922 395.923096,456.993774 
	C395.179260,466.194611 393.816772,475.355743 392.452728,484.492950 
	C391.352783,491.861115 389.833313,499.166656 388.500000,506.500000 
"/>
<path fill="none" opacity="1.000000" stroke="#000000" stroke-linecap="round" stroke-linejoin="round" stroke-width="8.000000"
	d="
M1600.500000,921.500000 
	C1599.515625,918.999390 1597.064575,918.136353 1594.975708,917.593323 
	C1578.319702,913.262878 1563.900146,904.369263 1549.532104,895.448303 
	C1536.664917,887.459106 1522.979858,881.621704 1507.986084,879.603027 
	C1493.049438,877.591980 1477.990479,878.673889 1463.004150,879.569458 
	C1455.813354,879.999268 1448.672852,881.227661 1441.496094,881.961182 
	C1439.463013,882.169006 1437.607910,881.286560 1436.000000,880.000000 
"/>
<path fill="none" opacity="1.000000" stroke="#000000" stroke-linecap="round" stroke-linejoin="round" stroke-width="7.000000"
	d="
M607.000000,477.000000 
	C605.338928,480.067963 607.458252,482.761200 608.099365,485.476532 
	C611.366028,499.311493 612.800110,513.307007 613.667053,527.489807 
	C614.670715,543.908875 613.513611,560.222900 612.291016,576.484314 
	C610.963074,594.148071 608.345947,611.741394 604.029175,629.007263 
	C602.999634,633.124939 602.333313,637.333313 601.500000,641.500000 
"/>
<path fill="none" opacity="1.000000" stroke="#000000" stroke-linecap="round" stroke-linejoin="round" stroke-width="6.000000"
	d="
M753.500000,1278.500000 
	C750.833374,1289.166626 747.935608,1299.782959 745.595276,1310.520752 
	C744.386047,1316.069214 744.378540,1321.868164 743.456055,1327.492798 
	C741.499146,1339.424683 740.814453,1351.492554 740.684204,1363.501953 
	C740.541565,1376.659790 741.180237,1389.908569 742.684753,1402.978760 
	C744.173157,1415.909424 747.166687,1428.666626 749.500000,1441.500000 
"/>
<path fill="none" opacity="1.000000" stroke="#000000" stroke-linecap="round" stroke-linejoin="round" stroke-width="7.000000"
	d="
M941.500000,475.000000 
	C957.116577,469.150574 971.155212,460.313354 985.555847,452.097870 
	C999.227661,444.298126 1014.299927,440.708832 1030.000854,440.020203 
	C1057.895386,438.796844 1083.029297,446.245392 1104.469727,464.535553 
	C1115.555542,473.992645 1125.212036,484.713837 1132.598755,497.442688 
	C1135.319702,502.131409 1139.223877,506.124359 1142.474121,510.519135 
	C1143.940552,512.502014 1146.405151,511.458557 1147.966064,512.548523 
	C1160.044678,520.982971 1174.008545,525.212219 1187.499512,530.501282 
	C1201.674683,536.058655 1211.374146,546.537781 1219.558350,558.961548 
	C1230.321167,575.299561 1240.484741,592.010437 1251.039673,608.474548 
	C1263.978516,628.657288 1270.007812,651.016663 1273.055664,674.492798 
	C1275.558350,693.769714 1276.393311,713.103149 1275.948608,732.498840 
	C1275.744629,741.395020 1274.369995,750.200012 1273.202148,759.026733 
	C1272.674438,763.015625 1270.727051,767.437561 1273.500000,771.500000 
"/>
<path fill="none" opacity="1.000000" stroke="#000000" stroke-linecap="round" stroke-linejoin="round" stroke-width="8.000000"
	d="
M918.500000,629.500000 
	C921.288269,633.833313 919.311707,638.220154 918.451843,642.490295 
	C915.508118,657.108643 910.472229,671.159058 906.454346,685.487183 
	C903.822876,694.871216 901.948914,704.364685 900.396057,713.983215 
	C898.625427,724.950745 897.865417,735.934204 898.024292,746.999634 
	C898.172302,757.308472 899.743591,767.470825 902.093262,777.478088 
	C902.830627,780.618530 903.335571,783.500000 902.000000,786.500000 
"/>
<path fill="none" opacity="1.000000" stroke="#000000" stroke-linecap="round" stroke-linejoin="round" stroke-width="6.000000"
	d="
M1035.500000,368.500000 
	C1026.833374,367.666687 1018.182007,366.431976 1009.496155,366.101074 
	C998.512085,365.682617 987.482178,365.609863 976.505066,366.111176 
	C965.815002,366.599365 955.094482,367.520538 944.517029,369.112946 
	C928.858093,371.470337 913.521606,375.442566 898.514221,380.541840 
	C894.420532,381.932770 890.500000,383.833374 886.500000,385.500031 
"/>
<path fill="none" opacity="1.000000" stroke="#000000" stroke-linecap="round" stroke-linejoin="round" stroke-width="6.000000"
	d="
M1777.500000,1027.500000 
	C1759.066406,1014.331848 1739.786499,1002.580139 1718.977051,993.552856 
	C1704.238037,987.158936 1688.816528,982.828064 1672.996338,980.020813 
	C1660.750610,977.847778 1648.475342,975.946838 1636.009033,975.319702 
	C1633.778687,975.207458 1631.666626,976.112488 1629.500000,975.500000 
"/>
<path fill="none" opacity="1.000000" stroke="#000000" stroke-linecap="round" stroke-linejoin="round" stroke-width="8.000000"
	d="
M1054.750000,131.500000 
	C1058.748535,142.177994 1054.125732,152.221680 1052.565186,162.509888 
	C1052.090088,165.642120 1051.770508,168.913193 1051.691528,172.004898 
	C1051.380371,184.173019 1049.738770,196.306763 1050.507812,208.499512 
	C1052.114746,233.976334 1053.070557,259.468658 1053.704102,284.994934 
	C1054.180542,304.187225 1053.797363,323.356445 1053.218506,342.491486 
	C1052.860962,354.309601 1051.301392,366.199371 1049.715698,378.028900 
	C1047.222900,396.624908 1042.402588,414.476685 1035.988403,431.995728 
	C1035.183350,434.194336 1034.959229,436.444580 1035.000000,438.750000 
"/>
<path fill="none" opacity="1.000000" stroke="#000000" stroke-linecap="round" stroke-linejoin="round" stroke-width="8.000000"
	d="
M803.500000,476.500000 
	C802.787415,480.491089 805.011475,483.530487 807.039124,486.473022 
	C815.523499,498.785431 827.997498,504.784943 841.985168,508.554993 
	C852.879578,511.491333 863.923950,513.796570 874.543762,517.886292 
	C891.163025,524.286377 901.873901,536.169128 909.031311,551.985840 
	C915.459778,566.191528 919.170105,581.192627 920.746948,596.526001 
	C921.674561,605.545654 923.189941,614.870483 920.130066,624.043396 
	C919.150574,626.979736 917.804016,628.222290 915.114990,629.708069 
	C910.133118,632.460754 907.098083,637.687195 903.602234,642.081360 
	C891.474915,657.325195 879.508423,672.680908 869.411255,689.446533 
	C858.372864,707.775024 850.252197,727.191528 845.592773,748.020752 
	C844.468201,753.047729 844.499939,758.333313 843.999939,763.500000 
"/>
<path fill="none" opacity="1.000000" stroke="#000000" stroke-linecap="round" stroke-linejoin="round" stroke-width="5.000000"
	d="
M958.500000,726.500000 
	C959.898193,735.875854 963.210999,744.771912 966.654236,753.438721 
	C979.564392,785.933960 995.824280,816.697083 1016.528870,844.978882 
	C1020.662415,850.625122 1025.166626,856.000000 1029.500000,861.500000 
"/>
<path fill="none" opacity="1.000000" stroke="#000000" stroke-linecap="round" stroke-linejoin="round" stroke-width="5.000000"
	d="
M1408.000000,454.500000 
	C1408.024658,456.730469 1407.927734,458.590973 1406.084961,460.578796 
	C1385.434937,482.853912 1365.577026,505.823395 1348.569336,531.046753 
	C1337.330078,547.715515 1327.644409,565.336914 1319.117920,583.555176 
	C1318.546021,584.777405 1316.781860,585.709839 1317.500000,587.500000 
"/>
<path fill="none" opacity="1.000000" stroke="#000000" stroke-linecap="round" stroke-linejoin="round" stroke-width="7.000000"
	d="
M672.500000,1164.000000 
	C667.410522,1161.440674 662.079712,1163.397949 657.012634,1163.707153 
	C645.391724,1164.416504 633.890625,1163.528198 622.521057,1161.856934 
	C604.494202,1159.206909 586.735535,1155.131714 569.487549,1149.035278 
	C559.527344,1145.514648 550.127563,1140.757446 540.500000,1136.500000 
"/>
<path fill="none" opacity="1.000000" stroke="#000000" stroke-linecap="round" stroke-linejoin="round" stroke-width="8.000000"
	d="
M1769.500000,1150.500000 
	C1770.190796,1152.079102 1770.562256,1153.880859 1772.010010,1154.986938 
	C1779.826538,1160.958740 1782.224487,1170.155762 1785.968384,1178.514160 
	C1791.612915,1191.116455 1795.505371,1204.469604 1802.405273,1216.554077 
	C1803.502563,1218.475586 1804.439087,1220.377808 1805.976440,1222.021973 
	C1811.843506,1228.297363 1818.386597,1227.113770 1821.467285,1218.987671 
	C1823.776245,1212.896973 1824.653198,1206.434448 1824.909546,1199.996338 
	C1825.207764,1192.510132 1825.472656,1185.048828 1824.803711,1177.473145 
	C1824.213867,1170.793701 1825.743042,1163.866943 1825.513306,1156.999512 
	C1824.970215,1140.752319 1822.988647,1124.947510 1814.605957,1110.438843 
	C1810.238403,1102.879883 1805.643799,1095.482178 1800.405640,1088.571533 
	C1793.134888,1078.979370 1788.170044,1068.727905 1788.000000,1056.500000 
"/>
<path fill="none" opacity="1.000000" stroke="#000000" stroke-linecap="round" stroke-linejoin="round" stroke-width="5.000000"
	d="
M1003.500000,390.500000 
	C994.000000,390.166687 984.494812,389.465057 975.001404,389.599304 
	C964.641724,389.745728 954.317627,390.875916 943.987427,391.869568 
	C931.970764,393.025421 920.195190,395.314819 908.521179,398.089020 
	C896.139465,401.031372 884.166870,405.373901 872.500000,410.500000 
"/>
<path fill="none" opacity="1.000000" stroke="#000000" stroke-linecap="round" stroke-linejoin="round" stroke-width="7.000000"
	d="
M1179.500000,1149.500000 
	C1178.350098,1157.388428 1176.007935,1165.054932 1173.333862,1172.439819 
	C1165.549561,1193.937500 1155.990234,1214.686035 1144.500732,1234.500488 
	C1135.401978,1250.192017 1125.775391,1265.550415 1115.500000,1280.500000 
"/>
<path fill="none" opacity="1.000000" stroke="#000000" stroke-linecap="round" stroke-linejoin="round" stroke-width="5.000000"
	d="
M1573.500000,701.500000 
	C1571.056519,700.488892 1569.782349,701.084717 1567.847290,703.370728 
	C1561.074829,711.371094 1553.851807,719.017151 1546.460449,726.460754 
	C1532.095215,740.927856 1517.412231,755.079224 1503.022217,769.522156 
	C1485.210938,787.398926 1467.580322,805.454346 1450.981689,824.484009 
	C1450.291382,825.275452 1449.333252,825.833313 1448.500000,826.499939 
"/>
<path fill="none" opacity="1.000000" stroke="#000000" stroke-linecap="round" stroke-linejoin="round" stroke-width="6.000000"
	d="
M569.500000,812.500000 
	C543.485291,835.118713 523.037781,862.058960 506.949707,892.473389 
	C499.791077,906.006775 493.571472,919.882874 488.908234,934.470642 
	C488.563812,935.548035 488.745056,936.513062 488.500000,937.500000 
"/>
<path fill="none" opacity="1.000000" stroke="#000000" stroke-linecap="round" stroke-linejoin="round" stroke-width="5.000000"
	d="
M1653.500000,1170.500000 
	C1636.228638,1161.934937 1618.319824,1154.991333 1600.020020,1148.939331 
	C1584.520386,1143.813354 1568.865723,1139.278076 1552.985107,1135.563721 
	C1544.558350,1133.592773 1536.176880,1131.264282 1527.500000,1130.500000 
"/>
<path fill="none" opacity="1.000000" stroke="#000000" stroke-linecap="round" stroke-linejoin="round" stroke-width="6.000000"
	d="
M545.500000,1265.500000 
	C538.256775,1266.634277 531.257751,1268.859619 524.024963,1270.140869 
	C517.036621,1271.379028 510.016327,1272.192017 502.993225,1272.936035 
	C489.376892,1274.378052 475.690002,1274.858276 461.999847,1274.983398 
	C448.891937,1275.103394 435.920532,1273.562256 422.996246,1271.523926 
	C421.857910,1271.344360 420.666656,1271.500000 419.500000,1271.500000 
"/>
<path fill="none" opacity="1.000000" stroke="#000000" stroke-linecap="round" stroke-linejoin="round" stroke-width="6.000000"
	d="
M644.000000,1075.000000 
	C644.054382,1078.278931 646.721130,1079.105347 649.014832,1079.960205 
	C669.861328,1087.729980 691.169800,1094.019775 713.019775,1098.145264 
	C730.166199,1101.382812 747.490295,1103.682739 765.000183,1103.988770 
	C766.132080,1104.008423 767.283997,1103.814697 768.000000,1105.000000 
"/>
<path fill="none" opacity="1.000000" stroke="#000000" stroke-linecap="round" stroke-linejoin="round" stroke-width="8.000000"
	d="
M1133.500000,1162.500000 
	C1124.403076,1165.803101 1116.469727,1171.355591 1108.605957,1176.657227 
	C1084.563477,1192.866333 1062.976807,1212.014160 1044.018921,1234.016357 
	C1035.150635,1244.308716 1026.866943,1255.063843 1019.500000,1266.500000 
"/>
<path fill="none" opacity="1.000000" stroke="#000000" stroke-linecap="round" stroke-linejoin="round" stroke-width="6.000000"
	d="
M609.500000,1266.500000 
	C598.945862,1285.657471 588.856689,1305.040039 581.001343,1325.500488 
	C575.359192,1340.196411 570.269104,1355.066162 567.004944,1370.501099 
	C565.807922,1376.161255 564.666687,1381.833374 563.500000,1387.500000 
"/>
<path fill="none" opacity="1.000000" stroke="#000000" stroke-linecap="round" stroke-linejoin="round" stroke-width="3.000000"
	d="
M1041.500000,601.500000 
	C1051.991577,615.074219 1060.549072,629.837769 1068.533813,644.982178 
	C1076.296387,659.705139 1083.545898,674.668091 1089.950806,690.020508 
	C1094.254272,700.335449 1098.596191,710.660645 1101.500000,721.500000 
"/>
<path fill="none" opacity="1.000000" stroke="#000000" stroke-linecap="round" stroke-linejoin="round" stroke-width="6.000000"
	d="
M470.500000,590.500000 
	C457.819672,596.900024 445.053162,603.059448 431.515839,607.547791 
	C416.478577,612.533325 401.252228,616.505737 385.509003,618.568726 
	C376.692047,619.724121 367.878723,620.631592 359.001770,621.038391 
	C357.822296,621.092468 356.666656,621.666687 355.500000,622.000000 
"/>
<path fill="none" opacity="1.000000" stroke="#000000" stroke-linecap="round" stroke-linejoin="round" stroke-width="7.000000"
	d="
M383.000000,523.000000 
	C377.914642,526.647034 371.779144,527.376160 365.986328,528.949585 
	C352.721527,532.552612 339.201935,534.632935 325.518707,536.166870 
	C312.647156,537.609924 299.830444,537.912781 287.013519,536.838684 
	C282.026062,536.420776 276.842102,536.364380 271.975372,534.566650 
	C271.149628,534.261597 270.000000,534.833374 269.000000,535.000061 
"/>
<path fill="none" opacity="1.000000" stroke="#000000" stroke-linecap="round" stroke-linejoin="round" stroke-width="7.000000"
	d="
M543.500000,1248.500000 
	C537.500000,1249.500000 531.533203,1251.010742 525.493713,1251.403076 
	C508.188324,1252.527222 490.822113,1253.968262 473.511688,1252.823120 
	C459.449860,1251.893066 445.355652,1250.435669 431.500000,1247.500000 
"/>
<path fill="none" opacity="1.000000" stroke="#000000" stroke-linecap="round" stroke-linejoin="round" stroke-width="5.000000"
	d="
M1076.500000,970.500000 
	C1095.004883,983.982788 1107.307129,1002.787903 1119.363525,1021.587524 
	C1130.159668,1038.421753 1138.383179,1056.589233 1141.941162,1076.510498 
	C1142.404053,1079.102539 1145.375366,1080.647339 1144.173096,1084.060913 
	C1143.357910,1086.375854 1142.758301,1088.361328 1140.500000,1089.500000 
"/>
<path fill="none" opacity="1.000000" stroke="#000000" stroke-linecap="round" stroke-linejoin="round" stroke-width="6.000000"
	d="
M484.500000,1398.500000 
	C468.187164,1433.414551 457.449860,1469.798950 455.500000,1508.500000 
"/>
<path fill="none" opacity="1.000000" stroke="#000000" stroke-linecap="round" stroke-linejoin="round" stroke-width="6.000000"
	d="
M1155.500000,1135.000000 
	C1136.604980,1140.729614 1118.103882,1147.492432 1100.511353,1156.522095 
	C1082.180176,1165.930786 1064.751099,1176.794556 1048.500000,1189.500000 
"/>
<path fill="none" opacity="1.000000" stroke="#000000" stroke-linecap="round" stroke-linejoin="round" stroke-width="6.000000"
	d="
M1394.000000,1014.750000 
	C1393.645264,1011.119629 1390.167969,1010.547302 1387.937378,1009.656860 
	C1376.082153,1004.924133 1364.288330,999.624817 1351.486206,998.117554 
	C1341.023315,996.885620 1330.882324,998.616333 1321.477905,1003.961182 
	C1308.515381,1011.328125 1296.674561,1020.193481 1285.502930,1030.003418 
	C1268.925537,1044.560059 1252.571289,1059.359985 1237.026611,1075.026367 
	C1235.147339,1076.920288 1232.953003,1077.411133 1230.500000,1077.500000 
"/>
<path fill="none" opacity="1.000000" stroke="#000000" stroke-linecap="round" stroke-linejoin="round" stroke-width="5.000000"
	d="
M505.000000,605.000000 
	C496.454163,613.219727 485.912476,618.300964 475.474945,623.449219 
	C461.487000,630.348511 446.495300,634.694641 431.438599,638.239136 
	C421.322113,640.620667 411.041321,643.122803 400.500000,643.500000 
"/>
<path fill="none" opacity="1.000000" stroke="#000000" stroke-linecap="round" stroke-linejoin="round" stroke-width="8.000000"
	d="
M1253.500000,879.500000 
	C1253.352417,887.666687 1254.435669,895.800354 1253.611938,904.011230 
	C1253.032593,909.786438 1253.533325,915.666992 1253.477173,921.499756 
	C1253.462646,923.001221 1253.719849,924.973816 1252.908203,925.921387 
	C1248.383667,931.204285 1248.769165,937.886047 1247.590576,944.017395 
	C1242.810303,968.885315 1235.608276,993.056519 1227.558838,1017.019775 
	C1225.587646,1022.888184 1222.057861,1027.784790 1219.009155,1033.005371 
	C1217.379639,1035.795532 1217.147461,1038.940552 1217.549927,1041.993408 
	C1218.949829,1052.609619 1216.726685,1062.284912 1210.491943,1070.994263 
	C1205.659668,1077.744507 1201.660767,1084.899292 1194.741699,1090.309082 
	C1189.981689,1094.030884 1187.522095,1100.681274 1183.995117,1105.996704 
	C1177.501709,1115.782471 1169.799805,1124.735474 1164.000000,1135.000000 
"/>
<path fill="none" opacity="1.000000" stroke="#000000" stroke-linecap="round" stroke-linejoin="round" stroke-width="6.000000"
	d="
M1254.000000,927.500000 
	C1256.954834,930.302917 1256.728882,933.615112 1256.695190,937.501709 
	C1256.562866,952.752136 1253.827881,967.517456 1249.416870,981.974670 
	C1246.173950,992.603943 1242.382568,1003.083862 1238.359741,1013.445557 
	C1237.245972,1016.314453 1235.894165,1018.961060 1236.578613,1021.982178 
	C1236.968628,1023.703674 1235.924072,1024.843018 1235.388184,1025.945679 
	C1232.978149,1030.903687 1230.069092,1035.616089 1227.531738,1040.516479 
	C1225.591797,1044.262939 1222.829224,1046.493896 1218.500000,1046.500000 
"/>
<path fill="none" opacity="1.000000" stroke="#000000" stroke-linecap="round" stroke-linejoin="round" stroke-width="5.000000"
	d="
M1053.000000,267.500000 
	C1046.244263,267.783539 1040.334595,264.493683 1034.005005,262.978882 
	C1019.204895,259.436890 1004.182739,257.622986 989.004333,258.130127 
	C981.479309,258.381531 973.984619,259.902740 966.513489,261.085297 
	C965.086060,261.311279 963.833313,261.820526 962.500000,261.000000 
"/>
<path fill="none" opacity="1.000000" stroke="#000000" stroke-linecap="round" stroke-linejoin="round" stroke-width="6.000000"
	d="
M1188.500000,590.500000 
	C1192.333374,599.500000 1196.777100,608.296814 1199.856323,617.547852 
	C1204.424561,631.272339 1208.523560,645.184692 1211.019409,659.496643 
	C1212.069214,665.517029 1213.333374,671.500000 1214.500000,677.500000 
"/>
<path fill="none" opacity="1.000000" stroke="#000000" stroke-linecap="round" stroke-linejoin="round" stroke-width="5.000000"
	d="
M907.500000,578.500000 
	C895.998474,578.559448 884.451233,577.674316 873.008423,579.069336 
	C855.541626,581.198608 838.197266,584.054504 821.989075,591.476196 
	C821.575745,591.665466 821.000000,591.500000 820.500000,591.500000 
"/>
<path fill="none" opacity="1.000000" stroke="#000000" stroke-linecap="round" stroke-linejoin="round" stroke-width="5.000000"
	d="
M481.500000,805.500000 
	C469.060364,812.372742 457.088196,819.884094 446.470856,829.467712 
	C430.975861,843.453735 418.523773,859.668030 409.516174,878.507751 
	C409.386475,878.779053 409.500000,879.166687 409.500000,879.500000 
"/>
<path fill="none" opacity="1.000000" stroke="#000000" stroke-linecap="round" stroke-linejoin="round" stroke-width="7.000000"
	d="
M796.500000,323.500000 
	C818.767212,338.832001 835.222778,359.517303 849.311768,382.117371 
	C853.589905,388.980042 857.752869,396.295013 859.500000,404.500000 
"/>
<path fill="none" opacity="1.000000" stroke="#000000" stroke-linecap="round" stroke-linejoin="round" stroke-width="8.000000"
	d="
M1254.000000,878.500000 
	C1256.268677,876.507446 1256.847656,873.799683 1256.980225,870.999084 
	C1257.472412,860.600830 1258.998169,850.315918 1260.237061,839.998413 
	C1260.517090,837.665833 1260.557251,835.407349 1260.147339,832.975159 
	C1259.376099,828.401306 1261.908203,824.374878 1264.590454,821.073486 
	C1273.385376,810.248413 1284.558716,801.995544 1295.468384,793.459595 
	C1303.297607,787.333923 1310.888794,780.898865 1318.478882,774.474976 
	C1322.896729,770.735901 1326.232422,766.031189 1328.928955,760.962219 
	C1330.140259,758.685364 1331.215698,755.819214 1328.951660,753.548157 
	C1326.422974,751.011658 1323.847656,748.961914 1319.475586,749.884521 
	C1304.417603,753.061890 1291.739990,761.234192 1279.090088,769.144043 
	C1263.610596,778.822937 1252.925781,793.000488 1246.622925,810.045471 
	C1241.780396,823.141174 1241.518311,836.833069 1244.557373,850.487244 
	C1244.970215,852.342590 1245.969971,854.171448 1248.000000,855.000000 
"/>
<path fill="none" opacity="1.000000" stroke="#000000" stroke-linecap="round" stroke-linejoin="round" stroke-width="5.000000"
	d="
M918.500000,1457.500000 
	C902.320374,1483.438354 888.219116,1510.346191 879.972168,1539.992310 
	C879.862122,1540.387695 879.333435,1540.666748 879.000061,1541.000122 
"/>
<path fill="none" opacity="1.000000" stroke="#000000" stroke-linecap="round" stroke-linejoin="round" stroke-width="5.000000"
	d="
M529.500000,508.500000 
	C529.090820,536.249390 523.677856,563.034668 514.015930,589.005920 
	C513.723389,589.792419 513.666687,590.666687 513.500000,591.500000 
"/>
<path fill="none" opacity="1.000000" stroke="#000000" stroke-linecap="round" stroke-linejoin="round" stroke-width="7.000000"
	d="
M757.500000,395.500000 
	C775.867798,405.618927 791.483398,418.934021 805.114502,434.902252 
	C814.160706,445.499542 822.189209,456.707397 829.500000,468.500000 
"/>
<path fill="none" opacity="1.000000" stroke="#000000" stroke-linecap="round" stroke-linejoin="round" stroke-width="5.000000"
	d="
M287.500000,330.500000 
	C288.581818,340.138031 289.238434,349.790985 289.681366,359.491730 
	C290.089233,368.424164 288.897552,377.184998 288.331970,385.989197 
	C287.761414,394.871552 285.833313,403.666656 284.500000,412.500000 
"/>
<path fill="none" opacity="1.000000" stroke="#000000" stroke-linecap="round" stroke-linejoin="round" stroke-width="5.000000"
	d="
M751.500000,997.500000 
	C774.619995,1024.339233 801.461060,1046.800659 831.500000,1065.500000 
"/>
<path fill="none" opacity="1.000000" stroke="#000000" stroke-linecap="round" stroke-linejoin="round" stroke-width="4.000000"
	d="
M649.500000,568.500000 
	C649.113159,591.749512 644.904114,614.355835 637.981018,636.494080 
	C636.612915,640.868652 635.000000,645.166687 633.500000,649.500000 
"/>
<path fill="none" opacity="1.000000" stroke="#000000" stroke-linecap="round" stroke-linejoin="round" stroke-width="4.000000"
	d="
M402.500000,540.500000 
	C377.466400,552.204346 351.132782,558.203125 323.500000,558.500000 
"/>
<path fill="none" opacity="1.000000" stroke="#000000" stroke-linecap="round" stroke-linejoin="round" stroke-width="4.000000"
	d="
M899.500000,605.500000 
	C873.494568,605.801819 848.335449,610.150696 824.448303,620.885010 
	C823.203613,621.444397 822.290161,623.218140 820.500000,622.500000 
"/>
<path fill="none" opacity="1.000000" stroke="#000000" stroke-linecap="round" stroke-linejoin="round" stroke-width="3.000000"
	d="
M536.500000,815.500000 
	C528.342896,824.508667 519.599487,832.976685 511.981384,842.485107 
	C499.667114,857.854980 488.540771,873.926514 481.500000,892.500000 
"/>
<path fill="none" opacity="1.000000" stroke="#000000" stroke-linecap="round" stroke-linejoin="round" stroke-width="5.000000"
	d="
M423.500000,415.500000 
	C424.903595,424.500000 423.783966,433.523071 423.371460,442.494080 
	C422.869232,453.415558 421.016846,464.240814 418.978912,474.996002 
	C417.932434,480.518799 416.666656,486.000000 415.500000,491.500000 
"/>
<path fill="none" opacity="1.000000" stroke="#000000" stroke-linecap="round" stroke-linejoin="round" stroke-width="5.000000"
	d="
M1197.500000,1256.500000 
	C1197.413330,1282.327759 1190.447021,1306.244507 1177.500000,1328.500000 
"/>
<path fill="none" opacity="1.000000" stroke="#000000" stroke-linecap="round" stroke-linejoin="round" stroke-width="5.000000"
	d="
M504.500000,1289.500000 
	C497.833344,1290.500000 491.195496,1292.035156 484.494385,1292.395752 
	C467.159424,1293.328613 449.798492,1293.645630 432.500000,1291.500000 
"/>
<path fill="none" opacity="1.000000" stroke="#000000" stroke-linecap="round" stroke-linejoin="round" stroke-width="5.000000"
	d="
M670.500000,913.000000 
	C668.134583,913.168457 666.648254,914.119934 665.415649,916.455444 
	C656.805176,932.771179 650.228882,949.771912 646.976074,967.995728 
	C646.176880,972.473267 645.308777,976.923218 645.500000,981.500000 
"/>
<path fill="none" opacity="1.000000" stroke="#000000" stroke-linecap="round" stroke-linejoin="round" stroke-width="3.000000"
	d="
M1329.500000,1092.500000 
	C1311.901001,1092.778198 1295.141846,1097.449829 1278.528198,1102.591187 
	C1271.691162,1104.707031 1265.166626,1107.833374 1258.500000,1110.500000 
"/>
<path fill="none" opacity="1.000000" stroke="#000000" stroke-linecap="round" stroke-linejoin="round" stroke-width="5.000000"
	d="
M801.500000,592.500000 
	C785.180786,571.033386 764.724304,555.186768 738.993652,546.518921 
	C738.544556,546.367676 738.000000,546.500000 737.500000,546.500000 
"/>
<path fill="none" opacity="1.000000" stroke="#000000" stroke-linecap="round" stroke-linejoin="round" stroke-width="3.000000"
	d="
M914.500000,458.500000 
	C893.428650,457.595703 873.011719,461.154388 852.990417,467.469513 
	C852.232483,467.708588 851.333313,467.500000 850.500000,467.500000 
"/>
<path fill="none" opacity="1.000000" stroke="#000000" stroke-linecap="round" stroke-linejoin="round" stroke-width="4.000000"
	d="
M724.500000,1398.500000 
	C724.116333,1408.025146 724.372253,1417.615112 725.708984,1426.970093 
	C727.303589,1438.130493 729.636353,1449.304321 734.963074,1459.519287 
	C735.408691,1460.373779 735.333374,1461.500000 735.500000,1462.500000 
"/>
<path fill="none" opacity="1.000000" stroke="#000000" stroke-linecap="round" stroke-linejoin="round" stroke-width="5.000000"
	d="
M905.500000,228.500000 
	C913.172913,240.256912 919.699585,252.602798 923.949829,266.015900 
	C926.479980,274.000824 929.026306,282.028107 929.500000,290.500000 
"/>
<path fill="none" opacity="1.000000" stroke="#000000" stroke-linecap="round" stroke-linejoin="round" stroke-width="7.000000"
	d="
M1601.500000,1353.500000 
	C1603.681885,1361.162354 1606.556519,1368.618652 1608.021851,1376.495972 
	C1611.262695,1393.918091 1612.298706,1411.400391 1609.739868,1428.998535 
	C1608.154541,1439.901733 1605.849121,1450.647095 1601.960571,1460.985107 
	C1601.018799,1463.488647 1601.971924,1465.440186 1603.000000,1467.500000 
"/>
<path fill="none" opacity="1.000000" stroke="#000000" stroke-linecap="round" stroke-linejoin="round" stroke-width="3.000000"
	d="
M1497.500000,1001.500061 
	C1490.000000,1001.833374 1482.472534,1001.872314 1475.006348,1002.568237 
	C1463.482178,1003.642578 1451.990967,1005.097412 1440.511475,1006.588562 
	C1439.093872,1006.772644 1437.833374,1008.166748 1436.500000,1009.000061 
"/>
<path fill="none" opacity="1.000000" stroke="#000000" stroke-linecap="round" stroke-linejoin="round" stroke-width="5.000000"
	d="
M456.000000,1384.000000 
	C452.483978,1382.287476 449.531586,1384.638306 446.526337,1385.583740 
	C431.301575,1390.374146 415.788635,1393.789551 399.993317,1395.951172 
	C398.543304,1396.149658 397.000000,1395.666626 395.500000,1395.500000 
"/>
<path fill="none" opacity="1.000000" stroke="#000000" stroke-linecap="round" stroke-linejoin="round" stroke-width="3.000000"
	d="
M1002.500000,288.500000 
	C995.612671,288.737640 988.920593,286.807953 981.998718,286.886780 
	C973.948364,286.978516 965.991333,287.475525 957.973877,288.217407 
	C952.638123,288.711121 947.465698,290.911713 942.000000,290.000000 
"/>
<path fill="none" opacity="1.000000" stroke="#000000" stroke-linecap="round" stroke-linejoin="round" stroke-width="4.000000"
	d="
M1209.500000,1130.500000 
	C1226.836426,1145.638794 1235.391602,1165.399170 1239.500000,1187.500000 
"/>
<path fill="none" opacity="1.000000" stroke="#000000" stroke-linecap="round" stroke-linejoin="round" stroke-width="3.000000"
	d="
M635.500000,1179.500000 
	C627.666687,1179.286255 619.885376,1180.434937 611.986511,1179.632446 
	C602.533325,1178.672119 593.195496,1177.373413 583.992737,1175.028442 
	C582.544312,1174.659424 581.000000,1174.666626 579.500000,1174.500000 
"/>
<path fill="none" opacity="1.000000" stroke="#000000" stroke-linecap="round" stroke-linejoin="round" stroke-width="5.000000"
	d="
M573.500000,920.500000 
	C559.873596,935.927734 551.129761,954.147156 543.536804,973.014771 
	C543.248169,973.731995 543.500000,974.666687 543.500000,975.500000 
"/>
<path fill="none" opacity="1.000000" stroke="#000000" stroke-linecap="round" stroke-linejoin="round" stroke-width="8.000000"
	d="
M846.500000,1103.500000 
	C837.299683,1103.036743 828.130798,1102.302612 818.993347,1101.048340 
	C812.178162,1100.112915 805.531311,1098.536011 799.024170,1096.425415 
	C796.501526,1095.607056 794.189209,1094.414185 791.500000,1095.500000 
"/>
<path fill="none" opacity="1.000000" stroke="#000000" stroke-linecap="round" stroke-linejoin="round" stroke-width="4.000000"
	d="
M444.500000,1473.500000 
	C441.379730,1484.929321 437.783813,1496.242554 436.006226,1508.000977 
	C435.301636,1512.661865 434.592651,1517.324585 434.034393,1522.004150 
	C433.791321,1524.041748 433.831085,1526.139282 435.000000,1528.000000 
"/>
<path fill="none" opacity="1.000000" stroke="#000000" stroke-linecap="round" stroke-linejoin="round" stroke-width="4.000000"
	d="
M589.500000,658.500000 
	C575.254089,670.201233 558.556580,677.194336 541.501404,683.503845 
	C539.324402,684.309204 537.166687,685.166687 535.000000,686.000000 
"/>
<path fill="none" opacity="1.000000" stroke="#000000" stroke-linecap="round" stroke-linejoin="round" stroke-width="3.000000"
	d="
M968.500000,789.500000 
	C974.681396,806.002869 983.385742,821.134949 993.502136,835.498535 
	C995.153259,837.842773 996.833374,840.166626 998.500000,842.500000 
"/>
<path fill="none" opacity="1.000000" stroke="#000000" stroke-linecap="round" stroke-linejoin="round" stroke-width="3.000000"
	d="
M1369.500000,727.500000 
	C1357.927856,744.094849 1348.349487,761.878235 1338.500000,779.500000 
"/>
<path fill="none" opacity="1.000000" stroke="#000000" stroke-linecap="round" stroke-linejoin="round" stroke-width="3.000000"
	d="
M307.500000,364.500000 
	C307.584045,378.935150 306.039917,393.241211 303.946930,407.492218 
	C303.603058,409.833527 302.264954,412.009155 302.500000,414.500000 
"/>
<path fill="none" opacity="1.000000" stroke="#000000" stroke-linecap="round" stroke-linejoin="round" stroke-width="4.000000"
	d="
M556.500000,1444.500000 
	C555.452393,1460.500000 554.896790,1476.500000 556.500000,1492.500000 
"/>
<path fill="none" opacity="1.000000" stroke="#000000" stroke-linecap="round" stroke-linejoin="round" stroke-width="4.000000"
	d="
M273.500000,432.500000 
	C258.661652,433.055176 243.923294,432.510376 229.500000,428.500000 
"/>
<path fill="none" opacity="1.000000" stroke="#000000" stroke-linecap="round" stroke-linejoin="round" stroke-width="3.000000"
	d="
M1163.500000,1152.500000 
	C1151.731812,1162.796631 1141.101807,1174.161377 1131.484009,1186.487549 
	C1129.595459,1188.907837 1127.499878,1191.166626 1125.499878,1193.500000 
"/>
<path fill="none" opacity="1.000000" stroke="#000000" stroke-linecap="round" stroke-linejoin="round" stroke-width="4.000000"
	d="
M587.500000,934.500000 
	C579.092957,946.816162 571.573181,959.623291 566.026184,973.510437 
	C565.658752,974.430237 565.666687,975.500000 565.500000,976.500000 
"/>
<path fill="none" opacity="1.000000" stroke="#000000" stroke-linecap="round" stroke-linejoin="round" stroke-width="3.000000"
	d="
M291.500000,445.500000 
	C278.287476,448.583038 264.863556,447.437775 251.500000,447.500000 
"/>
<path fill="none" opacity="1.000000" stroke="#000000" stroke-linecap="round" stroke-linejoin="round" stroke-width="3.000000"
	d="
M1563.500000,1284.500000 
	C1573.515503,1296.796997 1583.050537,1309.426514 1590.500000,1323.500000 
"/>
<path fill="none" opacity="1.000000" stroke="#000000" stroke-linecap="round" stroke-linejoin="round" stroke-width="3.000000"
	d="
M1144.000000,512.500000 
	C1142.742065,515.948425 1145.057617,518.514099 1146.587891,520.944702 
	C1152.804810,530.819885 1158.368164,541.035217 1163.500000,551.500000 
"/>
<path fill="none" opacity="1.000000" stroke="#000000" stroke-linecap="round" stroke-linejoin="round" stroke-width="3.000000"
	d="
M932.500000,228.500000 
	C939.090881,240.747467 943.493042,253.724548 945.500000,267.500000 
"/>
<path fill="none" opacity="1.000000" stroke="#000000" stroke-linecap="round" stroke-linejoin="round" stroke-width="3.000000"
	d="
M783.500000,461.500000 
	C773.162842,450.790497 761.603149,441.748260 747.989075,435.523956 
	C747.575500,435.334900 747.000000,435.500000 746.500000,435.500000 
"/>
<path fill="none" opacity="1.000000" stroke="#000000" stroke-linecap="round" stroke-linejoin="round" stroke-width="3.000000"
	d="
M685.500000,654.500000 
	C684.903381,666.458252 681.812195,677.955383 678.915283,689.478699 
	C678.747498,690.145996 678.600708,690.816833 678.500000,691.500000 
"/>
<path fill="none" opacity="1.000000" stroke="#000000" stroke-linecap="round" stroke-linejoin="round" stroke-width="2.000000"
	d="
M529.499939,437.500000 
	C529.833313,441.666656 529.924438,445.870239 530.552734,449.991943 
	C531.700134,457.520203 530.330505,465.000000 530.500000,472.500000 
"/>
<path fill="none" opacity="1.000000" stroke="#000000" stroke-linecap="round" stroke-linejoin="round" stroke-width="3.000000"
	d="
M825.500000,293.500000 
	C836.115112,302.384033 843.677246,313.653198 850.500000,325.500000 
"/>
<path fill="none" opacity="1.000000" stroke="#000000" stroke-linecap="round" stroke-linejoin="round" stroke-width="3.000000"
	d="
M1214.500000,1168.500000 
	C1218.839355,1179.094482 1221.479004,1190.101074 1222.500000,1201.500000 
"/>
<path fill="none" opacity="1.000000" stroke="#000000" stroke-linecap="round" stroke-linejoin="round" stroke-width="3.000000"
	d="
M711.500000,1183.500000 
	C703.589111,1194.114990 696.822205,1205.492554 689.500000,1216.500000 
"/>
<path fill="none" opacity="1.000000" stroke="#000000" stroke-linecap="round" stroke-linejoin="round" stroke-width="3.000000"
	d="
M818.000000,714.000000 
	C814.693848,715.891174 812.384521,713.635376 810.011780,711.983093 
	C803.028931,707.120789 795.802979,702.762207 787.500000,700.500000 
"/>
<path fill="none" opacity="1.000000" stroke="#000000" stroke-linecap="round" stroke-linejoin="round" stroke-width="3.000000"
	d="
M858.500000,340.500000 
	C864.910889,349.794556 869.363708,360.068146 873.500000,370.500000 
"/>
<path fill="none" opacity="1.000000" stroke="#000000" stroke-linecap="round" stroke-linejoin="round" stroke-width="2.000000"
	d="
M859.500000,690.500000 
	C849.388000,690.347595 840.022034,693.800964 830.500000,696.500000 
"/>
<path fill="none" opacity="1.000000" stroke="#000000" stroke-linecap="round" stroke-linejoin="round" stroke-width="3.000000"
	d="
M538.500000,757.500000 
	C537.121094,767.307739 538.667908,776.913696 540.500000,786.500000 
"/>
<path fill="none" opacity="1.000000" stroke="#000000" stroke-linecap="round" stroke-linejoin="round" stroke-width="8.000000"
	d="
M1243.000000,1041.000000 
	C1238.814453,1041.691406 1236.580811,1044.460205 1234.387817,1047.929077 
	C1230.658203,1053.828003 1226.365234,1059.502563 1218.000000,1058.500000 
"/>
<path fill="none" opacity="1.000000" stroke="#000000" stroke-linecap="round" stroke-linejoin="round" stroke-width="3.000000"
	d="
M565.500000,763.500000 
	C564.408081,771.434937 565.259033,779.244080 566.987671,787.002747 
	C567.243225,788.149597 567.333313,789.333313 567.500000,790.500000 
"/>
<path fill="none" opacity="1.000000" stroke="#000000" stroke-linecap="round" stroke-linejoin="round" stroke-width="6.000000"
	d="
M1259.000000,832.000000 
	C1253.464600,834.102844 1253.135132,839.703613 1251.676392,844.059082 
	C1248.706909,852.925659 1248.085205,862.142212 1249.848877,871.528381 
	C1250.370239,874.302673 1251.159180,876.527039 1253.000000,878.500000 
"/>
<path fill="none" opacity="1.000000" stroke="#000000" stroke-linecap="round" stroke-linejoin="round" stroke-width="2.000000"
	d="
M1045.500000,295.500000 
	C1037.950439,293.294830 1030.408447,291.054260 1022.500000,290.500000 
"/>
<path fill="none" opacity="1.000000" stroke="#000000" stroke-linecap="round" stroke-linejoin="round" stroke-width="2.000000"
	d="
M772.500000,612.500000 
	C764.949402,608.899780 757.742920,604.507996 749.500000,602.500000 
"/>
<path fill="none" opacity="1.000000" stroke="#000000" stroke-linecap="round" stroke-linejoin="round" stroke-width="2.000000"
	d="
M422.000000,1443.000000 
	C417.191833,1442.328735 413.690765,1445.745728 409.495331,1446.984253 
	C406.200378,1447.956909 403.062317,1449.582642 399.500000,1449.500000 
"/>
<path fill="none" opacity="1.000000" stroke="#000000" stroke-linecap="round" stroke-linejoin="round" stroke-width="2.000000"
	d="
M466.500000,774.500000 
	C466.333160,781.341675 467.435150,787.993042 469.500000,794.500000 
"/>
<path fill="none" opacity="1.000000" stroke="#000000" stroke-linecap="round" stroke-linejoin="round" stroke-width="3.000000"
	d="
M441.500000,814.500000 
	C434.734741,818.202026 428.444397,822.598206 422.500000,827.500000 
"/>
<path fill="none" opacity="1.000000" stroke="#000000" stroke-linecap="round" stroke-linejoin="round" stroke-width="2.000000"
	d="
M404.500000,846.500000 
	C400.422638,851.550964 396.356415,856.609619 393.500000,862.500000 
"/>
<path fill="none" opacity="1.000000" stroke="#000000" stroke-linecap="round" stroke-linejoin="round" stroke-width="2.000000"
	d="
M790.500000,625.500000 
	C795.239014,628.687256 799.932007,631.928833 803.500000,636.500000 
"/>
<path fill="none" opacity="1.000000" stroke="#000000" stroke-linecap="round" stroke-linejoin="round" stroke-width="6.000000"
	d="
M1342.000000,1858.250000 
	C1342.666870,1858.499268 1343.333740,1858.748657 1343.912231,1858.964966 
	C1344.656738,1863.666138 1340.568115,1867.328491 1341.250000,1872.000000 
"/>
<path fill="none" opacity="1.000000" stroke="#000000" stroke-linecap="round" stroke-linejoin="round" stroke-width="2.000000"
	d="
M917.500000,579.500000 
	C915.833313,579.500000 914.166687,579.500000 912.500000,579.500000 
"/>
</svg>